<?xml version="1.0" encoding="UTF-8" standalone="no"?>
<svg
   xmlns:dc="http://purl.org/dc/elements/1.1/"
   xmlns:cc="http://creativecommons.org/ns#"
   xmlns:rdf="http://www.w3.org/1999/02/22-rdf-syntax-ns#"
   xmlns:svg="http://www.w3.org/2000/svg"
   xmlns="http://www.w3.org/2000/svg"
   xmlns:sodipodi="http://sodipodi.sourceforge.net/DTD/sodipodi-0.dtd"
   xmlns:inkscape="http://www.inkscape.org/namespaces/inkscape"
   sodipodi:docname="logo.svg"
   inkscape:version="1.0 (4035a4fb49, 2020-05-01)"
   id="svg8"
   version="1.1"
   viewBox="0 0 350 180"
   height="180mm"
   width="350mm">
  <defs
     id="defs2" />
  <sodipodi:namedview
     inkscape:window-maximized="1"
     inkscape:window-y="-8"
     inkscape:window-x="-8"
     inkscape:window-height="702"
     inkscape:window-width="1366"
     showgrid="false"
     inkscape:document-rotation="0"
     inkscape:current-layer="text932"
     inkscape:document-units="mm"
     inkscape:cy="340.15748"
     inkscape:cx="661.41732"
     inkscape:zoom="0.49497475"
     inkscape:pageshadow="2"
     inkscape:pageopacity="0.0"
     borderopacity="1.0"
     bordercolor="#666666"
     pagecolor="#ffffff"
     id="base" />
  <metadata
     id="metadata5">
    <rdf:RDF>
      <cc:Work
         rdf:about="">
        <dc:format>image/svg+xml</dc:format>
        <dc:type
           rdf:resource="http://purl.org/dc/dcmitype/StillImage" />
        <dc:title></dc:title>
      </cc:Work>
    </rdf:RDF>
  </metadata>
  <g
     id="layer1"
     inkscape:groupmode="layer"
     inkscape:label="Layer 1">
    <path
       inkscape:transform-center-y="-2.3460803"
       inkscape:transform-center-x="-0.41219864"
       d="M 135.60037,89.809727 A 46.939854,46.939854 0 0 1 88.66051,136.74959 46.939854,46.939854 0 0 1 41.720658,89.809727 46.939854,46.939854 0 0 1 88.66051,42.869877 a 46.939854,46.939854 0 0 1 46.93986,46.93985"
       style="opacity:1;fill:#1d3557;fill-opacity:1;fill-rule:evenodd;stroke:none;stroke-width:3.60643;stroke-miterlimit:4;stroke-dasharray:none;stroke-opacity:1"
       id="circle860" />
    <path
       sodipodi:nodetypes="scscsssccsscsssss"
       id="path849"
       d="m 85.71514,102.01314 c -1.02528,-4.801543 -4.62637,-9.060083 -1.32291,-20.032743 1.78768,-4.89421 5.06269,-11.19662 15.49702,-12.09524 5.69373,-0.49035 14.64739,5.12897 14.93006,3.2128 1.20212,-2.02801 2.09504,-6.01128 -2.45685,-8.88244 -4.6892,-2.95777 -5.52429,-5.30776 -8.12648,-6.42559 -5.02766,-2.15975 -8.043,-1.96719 -10.77233,-3.40179 -4.99797,-2.62706 -10.29019,0.41661 -15.308032,1.13393 -5.375821,-0.21076 -11.798125,3.69465 -19.84375,13.98512 -4.407321,7.02507 -7.907028,15.9104 -6.331101,24.75743 1.320279,7.411863 0.67276,13.362463 12.378719,22.678583 11.025889,8.77489 19.780354,8.71686 25.513394,8.69345 6.79764,-0.12905 19.66885,1.92764 21.92262,-4.91369 0.74666,-2.2665 3.94672,-5.2688 1.88988,-5.85863 L 87.983,107.49379 c -0.6331,-0.18155 -0.87536,-0.62511 -1.06852,-0.65366 -0.47707,-0.0705 -0.17269,-0.019 -1.19934,-4.82699 z"
       style="opacity:1;fill:#e63946;fill-opacity:1;stroke:none;stroke-width:0.264583px;stroke-linecap:butt;stroke-linejoin:miter;stroke-opacity:1" />
    <g
       inkscape:transform-center-y="-40.646368"
       inkscape:transform-center-x="2.9002849"
       style="font-size:50.8px;line-height:1.25;font-family:'Dancing Script';-inkscape-font-specification:'Dancing Script';letter-spacing:1.85208px;fill:#1d3557;fill-opacity:1;stroke-width:0.264583"
       id="text864"
       transform="rotate(-179.92718,98.652784,126.2666)"
       aria-label="surfgirl school">
      <path
         id="path899"
         style="font-style:normal;font-variant:normal;font-weight:600;font-stretch:normal;font-size:50.8px;font-family:'Dancing Script';-inkscape-font-specification:'Dancing Script Semi-Bold';fill:#1d3557;fill-opacity:1"
         d="m 152.93291,167.49141 q 0.46633,-2.44512 1.79975,-3.74229 1.274,-1.25677 2.93512,-1.56056 1.67064,-0.35368 3.26746,-0.0491 1.44712,0.27599 2.16939,0.82747 0.72228,0.55148 1.00728,1.22642 0.285,0.67494 0.38943,1.21201 0.0949,0.58698 0.25645,0.82465 1.19016,1.6233 2.68924,3.25381 1.49908,1.63051 3.36418,2.96881 l 0.54891,0.10469 q 1.94612,0.37116 2.62081,1.17214 0.67469,0.80098 0.5129,1.64929 -0.10468,0.5489 -0.45167,0.74131 -0.29709,0.20191 -0.64639,0.1353 -0.24951,-0.0476 -0.67006,-0.28294 -0.43007,-0.18546 -1.17858,-0.32821 -1.54692,-0.29503 -3.62628,0.0324 -2.02946,0.33697 -4.30842,0.62635 -2.27896,0.28938 -4.52449,-0.13888 -0.6487,-0.12372 -1.18809,-0.27831 -0.48949,-0.14507 -0.95995,-0.38994 0.0353,1.71334 1.04715,3.45779 1.06181,1.75398 3.44007,3.65559 l -0.55379,0.46326 q -2.66351,-1.49058 -3.95811,-3.65096 -1.25421,-2.10096 -1.15621,-4.51291 -1.94356,-1.19812 -2.59896,-3.18488 -0.6554,-1.98676 -0.22714,-4.23229 z m 2.08399,0.1906 q -0.16179,0.84831 0.16592,1.84169 0.2778,0.98386 1.32082,1.75165 0.84882,-2.01017 2.31059,-3.438 1.50216,-1.36841 2.92098,-2.0287 0.003,-0.82696 -1.34475,-1.08391 -1.69662,-0.32358 -3.37446,0.33902 -1.63745,0.72202 -1.9991,2.61825 z m 2.71754,4.19009 q 0.38017,0.17594 0.87918,0.27111 0.48948,0.14506 0.88869,0.2212 2.30494,0.38788 4.60525,0.25772 2.35022,-0.12065 4.69091,-0.19139 -1.50628,-1.32159 -3.06478,-2.91171 -1.51811,-1.53071 -2.41607,-2.78799 -1.58987,0.47251 -3.13241,1.78151 -1.55205,1.35889 -2.45077,3.35955 z" />
      <path
         id="path901"
         style="font-style:normal;font-variant:normal;font-weight:600;font-stretch:normal;font-size:50.8px;font-family:'Dancing Script';-inkscape-font-specification:'Dancing Script Semi-Bold';fill:#1d3557;fill-opacity:1"
         d="m 149.23713,184.13129 q 1.05346,-1.36873 2.98308,-1.29387 1.89863,0.11512 3.54916,1.38547 1.12719,0.86756 2.37809,2.40728 1.21992,1.57997 2.23539,3.259 1.05572,1.71002 1.55712,3.05749 0.47041,1.38773 0.0986,1.87082 -0.21689,0.28179 -0.90148,0.58824 -0.71558,0.34671 -1.42799,0.43943 -0.30328,-0.93857 -1.17627,-2.63615 -0.90396,-1.65731 -2.10217,-3.34878 -1.15795,-1.66049 -2.44617,-2.65199 -0.20128,-0.15492 -0.87637,-0.61041 -0.66583,-0.38425 -1.37507,-0.54551 -0.74023,-0.12099 -1.23598,0.52312 -0.52673,0.68436 -0.42179,2.04722 0.14519,1.39383 0.73321,3.1285 0.55703,1.77492 1.37732,3.62425 0.82029,1.84933 1.61276,3.48494 0.79247,1.63561 1.36828,2.71983 -0.28813,0.29107 -0.85196,0.69047 -0.55455,0.47065 -1.10593,0.68731 -0.58237,0.25692 -1.02519,-0.0839 -0.12078,-0.093 -0.69658,-1.17718 -0.60679,-1.04396 -1.45196,-2.52781 -0.84517,-1.48386 -1.82354,-2.87792 -1.00936,-1.35381 -1.97553,-2.09743 -0.60385,-0.46477 -1.23258,-0.56405 -0.62873,-0.0993 -1.15547,0.58508 -0.65067,0.84539 -0.78433,2.60154 -0.16465,1.79641 0.32408,4.1598 0.52899,2.39438 1.79821,4.90976 l -0.8766,0.22277 q -1.49222,-2.5588 -2.13881,-5.30011 -0.63732,-2.67008 -0.36411,-5.02397 0.24222,-2.31364 1.38864,-3.80315 0.86756,-1.12719 1.85566,-1.32825 0.94785,-0.23204 1.93889,0.14611 0.96006,0.4184 1.80545,1.06907 0.2818,0.21689 0.60385,0.46476 0.29108,0.28814 0.54189,0.54528 -0.64072,-1.58291 -1.07698,-3.26488 -0.42699,-1.61073 -0.39872,-3.06337 -0.003,-1.41238 0.7719,-2.4188 z" />
      <path
         id="path903"
         style="font-style:normal;font-variant:normal;font-weight:600;font-stretch:normal;font-size:50.8px;font-family:'Dancing Script';-inkscape-font-specification:'Dancing Script Semi-Bold';fill:#1d3557;fill-opacity:1"
         d="m 128.30101,203.47571 q 1.65059,-0.78743 3.07488,-0.39749 1.42428,0.38994 2.12422,1.85714 0.61244,1.28379 0.67048,3.05721 0.0799,1.81927 0.11608,3.54684 0.0122,1.79529 0.55901,2.94154 0.5687,1.19209 1.67625,1.508 1.08356,0.38363 2.19531,0.47239 -0.19221,-3.11652 -0.0917,-6.09129 0.0547,-2.95289 0.2217,-4.60853 l 1.14287,0.8619 q -0.0732,1.49832 -0.0778,4.20219 0.0172,2.74973 0.38864,6.0059 0.67723,0.23977 1.0272,0.97337 0.59057,1.23794 0.33818,2.59661 -0.29824,1.38054 -0.89429,1.66489 -0.50435,0.2406 -0.9721,-0.26796 -0.49172,-0.44083 -0.60109,-0.67008 -0.10936,-0.22925 -0.18634,-0.98051 -0.0551,-0.70541 -0.11861,-0.95654 -0.26248,-0.5502 -1.23668,-0.70458 -0.99818,-0.0866 -2.24327,-0.33694 -1.26907,-0.18257 -2.462,-0.79544 -1.17106,-0.56703 -1.871,-2.03423 -0.65619,-1.3755 -0.71633,-3.03534 -0.0601,-1.65985 -0.0547,-3.18214 0.005,-1.5223 -0.41011,-2.39345 -0.34997,-0.73359 -0.82613,-0.78786 -0.47616,-0.0543 -0.98051,0.18634 -1.1004,0.52495 -1.9644,1.7814 -0.864,1.25645 -1.46132,2.83595 -0.64317,1.60137 -0.96749,3.1632 -0.30245,1.60769 -0.30161,2.78926 l -1.2451,-0.25028 q -0.0694,-2.38714 0.63856,-5.03254 0.70796,-2.6454 2.08893,-4.82388 1.40284,-2.13264 3.42024,-3.09505 z" />
      <path
         id="path905"
         style="font-style:normal;font-variant:normal;font-weight:600;font-stretch:normal;font-size:50.8px;font-family:'Dancing Script';-inkscape-font-specification:'Dancing Script Semi-Bold';fill:#1d3557;fill-opacity:1"
         d="m 118.45748,194.62007 q 0.55844,-0.0202 1.28204,0.30942 0.77436,0.3278 1.36956,1.32292 0.59519,0.99511 0.66687,2.97502 0.0809,2.23373 -0.55198,5.81497 -0.63468,3.53048 -1.79839,7.89344 -1.11295,4.36112 -2.67544,8.94185 -1.61326,4.58257 -3.44062,8.86788 -1.87812,4.28716 -3.88902,7.71496 -2.0109,3.4278 -4.02066,5.48305 -2.06052,2.0571 -3.98966,2.12694 -1.2184,0.0441 -1.601335,-0.70452 -0.431865,-0.69604 -0.468623,-1.71137 -0.07903,-2.18297 1.045638,-4.81618 1.0739,-2.63138 2.95823,-5.34293 1.88617,-2.66078 4.23843,-5.08427 2.35226,-2.42349 4.82994,-4.19069 0.18285,-0.56579 0.41647,-1.13341 0.18469,-0.51502 0.36754,-1.08081 -0.56579,-0.18285 -0.88877,-0.67949 -0.37191,-0.44403 -0.44289,-1.00063 -0.48701,-2.21903 -0.95563,-3.9304 -0.46862,-1.71136 -1.31765,-2.69729 -0.89795,-0.93332 -2.47172,-0.87635 -1.77684,0.0643 -3.04899,1.43205 -1.27215,1.36772 -2.60723,3.80522 l -0.9903,-0.67581 q 1.35644,-3.25161 3.33381,-4.79736 1.92844,-1.49315 3.50221,-1.55012 0.9138,-0.0331 1.89124,0.28736 0.9285,0.37305 1.81727,1.05254 -0.065,-3.20014 0.5336,-6.32264 0.54785,-3.12067 1.62543,-5.65051 1.02497,-2.57877 2.3913,-4.15324 1.36633,-1.57446 2.88933,-1.6296 z m -1.26594,2.94333 q -0.55843,0.0202 -1.18164,1.05944 -0.62505,0.98847 -1.17543,2.63506 -0.603,1.59766 -1.04082,3.54517 -0.4886,1.94936 -0.72335,3.88952 -0.28737,1.89124 -0.23223,3.41424 0.0551,1.523 0.45278,2.67777 0.39947,1.20554 1.31765,2.69729 1.08791,-3.64855 1.93117,-7.03407 0.7925,-3.38369 1.25352,-6.09454 0.40842,-2.75979 0.34409,-4.53662 -0.0827,-2.28451 -0.94574,-2.25326 z m -5.93797,29.74911 q -3.04094,3.05842 -5.17175,5.98223 -2.17974,2.97641 -3.26835,5.20165 -1.13753,2.27785 -1.10445,3.19165 0.0184,0.50767 0.52605,0.48929 1.2184,-0.0441 2.77126,-2.08283 1.55469,-1.98795 3.1613,-5.35028 1.6066,-3.36232 3.08594,-7.43171 z" />
      <path
         id="path907"
         style="font-style:normal;font-variant:normal;font-weight:600;font-stretch:normal;font-size:50.8px;font-family:'Dancing Script';-inkscape-font-specification:'Dancing Script Semi-Bold';fill:#1d3557;fill-opacity:1"
         d="m 103.4038,195.44357 q 1.12569,0.46826 1.81801,1.58155 0.66492,1.04687 0.021,2.5947 -0.60484,1.45401 -2.0033,2.3028 -1.33204,0.8214 -3.16839,1.26795 -1.816847,0.39964 -3.809676,0.56103 -1.992829,0.16138 -3.805925,0.28748 -1.148175,1.17298 -2.327491,2.55309 -1.179315,1.38011 -2.448304,3.10805 2.625063,-1.54898 5.125565,-2.26946 2.434087,-0.69309 4.35714,0.10686 1.782342,0.74142 2.33433,2.45658 0.485574,1.74254 -0.392422,3.85321 -1.034084,2.4859 -3.151088,4.13618 -2.183419,1.67768 -4.808868,2.56626 -2.691865,0.91598 -5.28656,0.93704 -2.661111,0.0485 -4.631068,-0.77102 -1.454015,-0.60484 -1.94295,-1.41344 -0.488935,-0.80861 -0.215781,-1.46526 0.214621,-0.51594 0.679525,-0.70769 0.398488,-0.16436 0.511807,-0.17224 0.180119,0.62512 0.637527,0.98046 0.390994,0.38272 1.047646,0.65588 1.829245,0.76093 3.947022,0.43144 2.117777,-0.32949 4.113967,-1.42481 1.99619,-1.09532 3.488069,-2.56548 1.472367,-1.42327 2.077209,-2.87728 0.409731,-0.98498 0.22173,-1.72342 -0.207513,-0.69154 -0.864165,-0.9647 -1.360208,-0.56582 -3.958265,0.38918 -2.617568,1.0019 -5.38709,2.76589 -0.335822,0.4105 -0.538814,0.76622 -0.249895,0.33621 -0.519302,0.71932 -0.999582,1.34483 -1.960529,1.93546 -0.980458,0.63753 -2.153051,0.14975 -0.234519,-0.0976 -0.543334,-0.28104 -0.328326,-0.13657 -0.664534,-0.38647 0.351198,-0.84427 1.639698,-2.61911 1.26899,-1.72795 3.139459,-3.97596 1.870469,-2.24802 4.033991,-4.5392 -1.774074,0.0323 -3.696354,0.55315 -1.969184,0.50134 -3.879448,1.52236 -1.910265,1.02103 -3.347358,2.62403 l -0.457794,-1.01574 q 1.601063,-1.8649 3.937208,-2.98387 2.269731,-1.09157 4.645285,-1.64395 2.309139,-0.52498 4.102724,-0.60418 2.601032,-2.54934 5.128154,-4.52421 2.527121,-1.97486 4.793104,-2.79289 2.285491,-0.86494 4.161641,-0.0845 z m -0.61233,2.0011 q -0.89117,-0.37071 -3.094491,0.69347 -2.25022,1.04467 -5.710509,4.33697 2.153051,-0.14975 4.02468,-0.41657 1.89114,-0.31372 3.25846,-0.95538 1.36731,-0.64166 1.85509,-1.81426 0.27315,-0.65665 0.14782,-1.14895 -0.10582,-0.5392 -0.48105,-0.69528 z" />
      <path
         id="path909"
         style="font-style:normal;font-variant:normal;font-weight:600;font-stretch:normal;font-size:50.8px;font-family:'Dancing Script';-inkscape-font-specification:'Dancing Script Semi-Bold';fill:#1d3557;fill-opacity:1"
         d="m 78.392859,196.12863 q 1.516651,1.50068 1.345989,3.18989 -0.134932,1.65311 -1.456954,2.9892 -0.821796,0.83055 -2.361243,1.80858 -1.539446,0.97804 -3.402748,1.85002 -1.935143,0.87237 -3.836077,1.42126 -1.900934,0.54889 -3.409596,0.55687 -1.580503,0.008 -2.338829,-0.74196 -0.433329,-0.42877 -0.472102,-0.96738 -0.03877,-0.53862 0.42572,-1.00806 0.464494,-0.46944 2.006983,-0.87275 1.470649,-0.40292 3.443805,-0.88035 1.973156,-0.47743 3.872949,-1.24184 1.863682,-0.80014 3.078512,-2.02791 1.1791,-1.19165 1.138805,-2.01763 -0.0403,-0.82599 -0.870843,-1.64778 -1.227765,-1.21483 -3.850914,-1.38055 -2.65926,-0.20145 -7.249097,1.33156 l 0.03078,-0.97004 q 4.335921,-1.99865 8.037066,-1.7668 3.665035,0.19613 5.86779,2.37567 z M 57.874124,208.271 q 0.649994,0.64315 0.905812,1.46799 0.183978,0.82522 -0.494898,1.51132 -0.857527,0.86666 -2.33198,0.55118 -1.546295,-0.31511 -2.521285,-1.27983 -0.613882,-0.60741 -0.725258,-1.28933 -0.111376,-0.68192 0.5675,-1.36802 0.750336,-0.75833 2.223648,-0.65837 1.437582,0.13608 2.376461,1.06506 z" />
      <path
         id="path911"
         style="font-style:normal;font-variant:normal;font-weight:600;font-stretch:normal;font-size:50.8px;font-family:'Dancing Script';-inkscape-font-specification:'Dancing Script Semi-Bold';fill:#1d3557;fill-opacity:1"
         d="m 67.193864,181.01727 q 0.757773,1.66442 0.342413,3.0815 -0.41536,1.41708 -1.894843,2.09065 -1.294548,0.58938 -3.068721,0.61568 -1.820407,0.0474 -3.548346,0.0526 -1.795222,-0.0199 -2.951068,0.5063 -1.20208,0.54728 -1.537751,1.64899 -0.402954,1.07653 -0.51159,2.18652 3.119462,-0.13643 6.091952,0.0173 2.951441,0.10752 4.603826,0.30412 l -0.882206,1.12727 q -1.49677,-0.1 -4.200128,-0.15301 -2.749591,-0.032 -6.01189,0.28113 -0.251846,0.67283 -0.991588,1.00962 -1.248314,0.56833 -2.602247,0.29167 -1.374982,-0.32289 -1.648622,-0.92393 -0.231542,-0.50858 0.285302,-0.96715 0.44956,-0.48376 0.680729,-0.58901 0.231169,-0.10524 0.983689,-0.16876 0.706287,-0.0425 0.958505,-0.10149 0.554806,-0.25259 0.726591,-1.22387 0.104501,-0.99647 0.377024,-2.23689 0.20524,-1.2656 0.839363,-2.44737 0.587889,-1.16073 2.067373,-1.8343 1.387015,-0.63148 3.047671,-0.66192 1.660656,-0.0304 3.18261,0.002 1.521954,0.0327 2.400397,-0.36722 0.739742,-0.33679 0.802517,-0.81191 0.06278,-0.47511 -0.168766,-0.98369 -0.505182,-1.10961 -1.74597,-1.99595 -1.240788,-0.88634 -2.809349,-1.51182 -1.589609,-0.67171 -3.145391,-1.02393 -1.602016,-0.33116 -2.78342,-0.35146 l 0.272523,-1.24042 q 2.387992,-0.0267 5.020303,0.72849 2.632312,0.75517 4.785743,2.17489 2.107198,1.44078 3.033365,3.47507 z" />
      <path
         id="path913"
         style="font-style:normal;font-variant:normal;font-weight:600;font-stretch:normal;font-size:50.8px;font-family:'Dancing Script';-inkscape-font-specification:'Dancing Script Semi-Bold';fill:#1d3557;fill-opacity:1"
         d="m 63.56578,166.92278 q 0.145772,2.33225 -1.36575,3.39381 -1.514692,1.01085 -3.694838,1.14712 -2.484352,0.15528 -5.887663,-0.54819 -3.403311,-0.70347 -7.145688,-1.94563 -3.796246,-1.2897 -7.405533,-2.84558 -3.663156,-1.60341 -6.613329,-3.20049 -3.004043,-1.64461 -4.772247,-3.06106 -1.822074,-1.46399 -1.879115,-2.37661 -0.03803,-0.60841 0.595734,-1.05522 0.630594,-0.4975 1.578069,-0.81122 0.896774,-0.31054 1.65729,-0.35808 1.368929,-0.0856 3.644141,0.48482 2.221342,0.52285 4.987722,1.62242 2.71251,1.05204 5.608813,2.60158 2.842433,1.50201 5.504245,3.37161 2.61111,1.87276 4.58212,4.09093 1.280203,0.12358 2.560405,0.24716 1.277034,0.0729 2.341756,0.006 1.875939,-0.11725 2.7537,-0.732 0.82389,-0.66229 0.760511,-1.67631 -0.08239,-1.31823 -1.381611,-2.5604 -1.302388,-1.29287 -3.203681,-2.39562 -1.951994,-1.09957 -3.986377,-1.8886 l 0.541865,-1.10275 q 4.544088,1.85374 7.29146,4.27788 2.747371,2.42414 2.928001,5.3141 z m -13.340719,-0.0823 q -1.936152,-1.66046 -4.265236,-3.09276 -2.379786,-1.42913 -4.794428,-2.60158 -2.41781,-1.22316 -4.661335,-2.10091 -2.294226,-0.87459 -4.052921,-1.32456 -1.809395,-0.4468 -2.826585,-0.43412 -0.202805,0.0127 -0.250337,0.0666 -0.09823,0.057 -0.09823,0.057 0.02535,0.40561 1.302387,1.29287 1.223166,0.83973 3.330432,1.9805 2.104098,1.09007 4.822946,2.24351 2.718848,1.15344 5.684864,2.18964 2.966015,1.03619 5.808446,1.72382 z" />
      <path
         id="path915"
         style="font-style:normal;font-variant:normal;font-weight:600;font-stretch:normal;font-size:50.8px;font-family:'Dancing Script';-inkscape-font-specification:'Dancing Script Semi-Bold';fill:#1d3557;fill-opacity:1"
         d="m 70.788574,139.12482 q -1.441895,2.02905 -3.194282,2.65337 -1.681551,0.61234 -3.318354,0.19703 -1.666231,-0.37389 -2.991326,-1.31554 -1.200869,-0.85337 -1.628005,-1.65546 -0.427137,-0.8021 -0.405294,-1.53442 0.02184,-0.73232 0.150471,-1.26412 0.158053,-0.57321 0.110122,-0.85655 -0.406355,-1.97142 -1.090592,-4.07798 -0.684236,-2.10657 -1.822914,-4.09983 l -0.455501,-0.32369 q -1.614961,-1.14763 -1.894965,-2.15677 -0.280005,-1.00914 0.220244,-1.7131 0.323691,-0.4555 0.719278,-0.48599 0.354179,-0.0599 0.644043,0.14607 0.207047,0.14713 0.491451,0.5362 0.31383,0.34765 0.934969,0.78905 1.283686,0.91222 3.310617,1.48012 1.985521,0.53847 4.178089,1.22408 2.192567,0.68561 4.055983,2.0098 0.538321,0.38254 0.964396,0.74764 0.384666,0.33567 0.710479,0.75417 0.681207,-1.57249 0.487359,-3.57986 -0.235257,-2.03679 -1.606007,-4.75585 l 0.696374,-0.19066 q 1.801225,2.46408 2.078953,4.96729 0.265744,2.43238 -0.827433,4.5846 1.268366,1.89846 1.0372,3.97772 -0.231166,2.07926 -1.555355,3.94268 z m -1.815485,-1.04085 q 0.500249,-0.70396 0.615832,-1.74359 0.156992,-1.0102 -0.47173,-2.14251 -1.608592,1.47435 -3.532077,2.16405 -1.935467,0.61886 -3.500374,0.62856 -0.346595,0.75083 0.771455,1.54535 1.407914,1.00049 3.209293,1.09651 1.789397,0.0252 2.907601,-1.54837 z m -0.726553,-4.94105 q -0.272421,-0.31823 -0.686514,-0.6125 -0.384666,-0.33567 -0.71594,-0.57108 -1.934251,-1.31221 -4.079949,-2.15147 -2.187107,-0.86869 -4.344787,-1.77878 0.819386,1.82868 1.574458,3.92326 0.74309,2.02375 1.036139,3.54073 1.642264,0.23222 3.589714,-0.3158 1.976877,-0.58944 3.626879,-2.03436 z" />
      <path
         id="path917"
         style="font-style:normal;font-variant:normal;font-weight:600;font-stretch:normal;font-size:50.8px;font-family:'Dancing Script';-inkscape-font-specification:'Dancing Script Semi-Bold';fill:#1d3557;fill-opacity:1"
         d="m 83.520427,125.97875 q -2.212614,1.34781 -4.516416,0.78823 -2.277374,-0.51619 -4.021596,-3.37958 -1.294952,-2.12584 -1.712742,-4.66704 -0.374405,-2.56763 0.0097,-5.06193 0.384057,-2.49429 1.494649,-4.47943 1.110592,-1.98514 2.845975,-3.04224 1.822152,-1.10996 3.141098,-0.60477 1.362329,0.47877 2.075874,1.65015 0.766401,1.25815 0.819706,2.71275 0.09669,1.42818 -0.901155,2.03601 -0.824307,0.50213 -1.820619,0.0383 0.335622,-0.62082 0.257873,-1.8226 -0.07775,-1.20178 -0.791294,-2.37316 -0.264276,-0.43385 -0.569952,-0.54506 -0.305677,-0.11121 -0.826292,0.20592 -1.127999,0.68712 -1.734932,2.42493 -0.563549,1.71139 -0.626958,3.95089 -0.08984,2.1961 0.316498,4.3279 0.406335,2.1318 1.331301,3.65026 0.766401,1.25815 2.051432,1.90297 1.285031,0.64481 3.107183,-0.46515 1.691999,-1.03067 2.845975,-3.04224 1.197361,-2.03799 1.702102,-4.72477 0.504741,-2.68677 -0.0377,-5.6279 l 1.203764,0.21845 q 0.544425,3.23734 -0.0092,6.42976 -0.536671,3.12261 -2.03574,5.6418 -1.429256,2.53614 -3.598485,3.85752 z" />
      <path
         id="path919"
         style="font-style:normal;font-variant:normal;font-weight:600;font-stretch:normal;font-size:50.8px;font-family:'Dancing Script';-inkscape-font-specification:'Dancing Script Semi-Bold';fill:#1d3557;fill-opacity:1"
         d="m 95.84586,117.9584 q -1.064613,0.0683 -1.682106,-1.62288 -0.614242,-1.64045 -0.754035,-3.82037 -0.152798,-2.38271 0.447021,-5.72996 0.599818,-3.34724 1.683838,-7.081873 1.080768,-3.785325 2.478716,-7.387372 1.445393,-3.655994 2.986996,-6.605497 1.58905,-3.00345 3.05009,-4.82789 1.46103,-1.824441 2.62704,-1.899214 1.01392,-0.06502 1.59565,1.068474 0.57848,1.082799 0.65325,2.248804 0.091,1.419485 -0.43798,3.489582 -0.48156,2.016151 -1.45057,4.368987 -0.96901,2.352837 -2.34685,4.680985 -1.32713,2.324897 -2.93375,4.260483 -1.60663,1.935581 -3.410853,3.171181 -0.504318,1.66128 -0.805852,3.30956 -0.304786,1.59758 -0.41329,3.08076 -0.05781,1.47993 0.02672,2.79803 0.02276,0.35487 0.04226,0.65904 0.0702,0.30093 0.140404,0.60185 0.296353,-0.93528 0.759728,-2.44122 0.51082,-1.55989 1.21467,-3.28487 0.754543,-1.72823 1.772323,-3.32063 1.06848,-1.59565 2.48014,-2.60245 1.40841,-1.0575 3.18277,-1.17129 1.62226,-0.104032 2.58355,0.59789 1.00874,0.64797 1.43513,1.74052 0.47709,1.0893 0.55187,2.25531 0.10078,1.57157 -0.3626,3.07751 -0.41593,1.452 -0.88906,2.80585 -0.42568,1.29991 -0.35091,2.46591 0.0585,0.91253 0.4901,1.29209 0.43157,0.37955 1.03992,0.34054 1.11531,-0.0715 2.51397,-1.28111 1.44935,-1.21284 2.8025,-3.13217 1.34989,-1.97002 2.22076,-4.26566 l 0.80921,0.71167 q -0.95276,2.60632 -2.39104,4.78563 -1.38759,2.17606 -3.18206,3.56374 -1.79772,1.33699 -3.87625,1.47028 -1.87575,0.12029 -2.90399,-0.83186 -1.02499,-0.90145 -1.11927,-2.37163 -0.0683,-1.06461 0.20532,-2.35477 0.32104,-1.3441 0.59139,-2.68495 0.26709,-1.39154 0.19557,-2.50685 -0.078,-1.2167 -0.66819,-1.6879 -0.53947,-0.47445 -1.29991,-0.42568 -1.26739,0.0813 -2.21629,1.16021 -0.9489,1.07894 -1.70995,2.70577 -0.71035,1.62359 -1.306306,3.44346 -0.599208,1.76918 -1.204917,3.43696 -0.558265,1.61383 -1.256934,2.62582 -0.695418,1.06268 -1.607944,1.1212 z m 3.287622,-18.587297 q 1.243318,-1.250531 2.406688,-2.954074 1.16011,-1.754239 2.10769,-3.647561 0.99827,-1.896574 1.69887,-3.672249 0.7006,-1.775676 1.06908,-3.173723 0.41918,-1.401299 0.42112,-2.164988 -0.007,-0.101392 -0.0604,-0.148836 -0.003,-0.0507 -0.054,-0.04745 -0.30418,0.01951 -1.23357,1.402619 -0.93264,1.332416 -2.16163,3.600116 -1.1783,2.264448 -2.32084,5.086551 -1.142539,2.822103 -1.873008,5.71959 z" />
      <path
         id="path921"
         style="font-style:normal;font-variant:normal;font-weight:600;font-stretch:normal;font-size:50.8px;font-family:'Dancing Script';-inkscape-font-specification:'Dancing Script Semi-Bold';fill:#1d3557;fill-opacity:1"
         d="m 122.64438,118.66606 q -2.02269,-0.95121 -2.17726,-2.65187 -0.17618,-1.65469 0.60209,-3.30962 0.69179,-1.47106 1.86491,-2.7719 1.17311,-1.30084 2.58154,-2.26646 1.40844,-0.96563 2.76295,-1.33911 1.35451,-0.37348 2.36586,0.10212 0.27582,0.12971 0.57873,0.44057 0.3705,0.28651 0.46791,0.55687 -0.7651,0.31384 -1.83832,1.04415 -1.02726,0.75193 -2.09501,1.70935 -1.00017,0.93308 -1.88404,1.97698 -0.81629,1.01955 -1.27027,1.98493 -0.49723,1.05732 -0.41051,1.82788 0.0867,0.77057 0.9142,1.1597 0.9194,0.43237 2.61459,0.0507 1.76278,-0.40603 3.58222,-1.29065 -0.84139,-1.91138 -0.7743,-3.84462 0.13468,-1.95759 1.10751,-4.02626 0.54047,-1.14927 1.65146,-2.19863 1.11099,-1.04937 2.57906,-1.42559 1.46807,-0.37621 3.16898,0.42367 1.93076,0.90798 2.14744,2.35717 0.28427,1.42483 -0.42914,2.94186 -0.79988,1.7009 -2.73536,3.42914 -1.86789,1.70389 -4.01706,3.05095 0.47063,0.67042 1.25213,1.03794 0.68956,0.32427 1.80627,0.45647 1.1167,0.1322 2.33604,-0.19258 1.28692,-0.34913 2.42227,-1.33091 l 0.4761,0.89754 q -2.02468,1.79857 -4.22281,2.056 -2.13055,0.23309 -3.69354,-0.50194 -0.59762,-0.28104 -1.152,-0.65402 -0.53276,-0.41896 -0.93034,-0.88661 -2.47097,1.19573 -5.09625,1.64525 -2.57932,0.47113 -4.55605,-0.45846 z m 10.36546,-3.65826 q 1.90591,-1.0685 3.50618,-2.56143 1.66785,-1.51727 2.40288,-3.08026 0.54046,-1.14926 0.4105,-1.82789 -0.0624,-0.70297 -0.65999,-0.98401 -0.9194,-0.43237 -2.44413,0.42243 -1.50311,0.80883 -2.41108,2.73959 -0.51885,1.10329 -0.84561,2.63373 -0.25917,1.50609 0.0412,2.65784 z" />
      <path
         id="path923"
         style="font-style:normal;font-variant:normal;font-weight:600;font-stretch:normal;font-size:50.8px;font-family:'Dancing Script';-inkscape-font-specification:'Dancing Script Semi-Bold';fill:#1d3557;fill-opacity:1"
         d="m 139.83366,128.69864 q -1.42817,-1.71943 -0.8467,-3.32505 0.54238,-1.57316 1.94919,-2.74167 1.2505,-1.03867 2.86465,-1.71902 1.61416,-0.68035 3.29921,-0.95732 1.68506,-0.27697 3.07009,-0.0406 1.38503,0.23639 2.09912,1.0961 0.19475,0.23447 0.33718,0.64447 0.21397,0.41662 0.1875,0.70276 -0.82598,-0.0404 -2.10766,0.16572 -1.24921,0.24515 -2.62228,0.65921 -1.30154,0.42069 -2.54477,0.99106 -1.1717,0.577 -1.99234,1.25863 -0.89879,0.74654 -1.14714,1.48112 -0.24834,0.73459 0.33591,1.43799 0.64917,0.78156 2.34618,1.15504 1.76856,0.38009 3.79144,0.35083 0.0489,-2.0878 0.92974,-3.81001 0.95239,-1.7156 2.71089,-3.17623 0.97695,-0.81146 2.42818,-1.29045 1.45122,-0.47898 2.94025,-0.19689 1.48903,0.28208 2.68999,1.72796 1.36326,1.64128 0.94472,3.04553 -0.347,1.41087 -1.63657,2.482 -1.44588,1.20096 -3.93172,1.94495 -2.41429,0.75061 -4.93195,1.05876 0.1418,0.80676 0.69359,1.47109 0.48688,0.58617 1.44205,1.17959 0.95518,0.59343 2.19714,0.81658 1.31349,0.22976 2.7581,-0.17768 l 0.0504,1.01475 q -2.59645,0.76983 -4.69621,0.0705 -2.02822,-0.69272 -3.13181,-2.02137 -0.42196,-0.50802 -0.76576,-1.08095 -0.30473,-0.60539 -0.46638,-1.19754 -2.74486,0.0346 -5.31292,-0.67199 -2.53559,-0.66752 -3.93131,-2.34787 z m 10.93846,1.08432 q 2.17919,-0.1591 4.26164,-0.83219 2.15399,-0.66648 3.48264,-1.77007 0.97695,-0.81146 1.14714,-1.48112 0.24173,-0.66305 -0.18023,-1.17107 -0.64917,-0.78155 -2.39252,-0.65428 -1.70428,0.0948 -3.34555,1.45808 -0.93787,0.779 -1.883,2.0263 -0.87359,1.25392 -1.09012,2.42435 z" />
      <path
         id="path925"
         style="font-style:normal;font-variant:normal;font-weight:600;font-stretch:normal;font-size:50.8px;font-family:'Dancing Script';-inkscape-font-specification:'Dancing Script Semi-Bold';fill:#1d3557;fill-opacity:1"
         d="m 151.28389,146.09396 q -0.74034,-2.21642 0.44754,-3.63083 1.20398,-1.36622 3.27585,-2.05828 2.36097,-0.78862 5.83076,-0.98355 3.46978,-0.19493 7.4057,0.0436 4.0002,0.27061 7.88813,0.84651 3.95222,0.60798 7.21377,1.39311 3.32584,0.81721 5.39871,1.73159 2.13715,0.94647 2.42685,1.81376 0.19313,0.5782 -0.30449,1.17289 -0.48153,0.64288 -1.31654,1.18958 -0.78683,0.53062 -1.50957,0.77203 -1.30095,0.43455 -3.64632,0.46814 -2.2811,0.0657 -5.23717,-0.2859 -2.89178,-0.31949 -6.08906,-1.07252 -3.133,-0.72095 -6.18593,-1.84356 -3.00475,-1.1387 -5.47968,-2.77572 -1.26896,0.20962 -2.53791,0.41925 -1.25286,0.25781 -2.26471,0.59579 -1.78277,0.59549 -2.47303,1.41521 -0.62598,0.8518 -0.30409,1.81546 0.41845,1.25276 1.9933,2.11926 1.59094,0.91467 3.7118,1.49167 2.16903,0.56091 4.33787,0.80052 l -0.24021,1.20498 q -4.86789,-0.62348 -8.14604,-2.26001 -3.27816,-1.63652 -4.19553,-4.38296 z m 12.91367,-3.34943 q 2.29789,1.10701 4.91687,1.89254 2.66717,0.76943 5.30204,1.28185 2.65098,0.5606 5.04474,0.83221 2.44194,0.25551 4.2572,0.23831 1.86345,-0.0333 2.84321,-0.30699 0.19273,-0.0644 0.22482,-0.12865 0.0803,-0.0804 0.0803,-0.0804 -0.12876,-0.38546 -1.59094,-0.91468 -1.39791,-0.49712 -3.7276,-1.05792 -2.31358,-0.51262 -5.23756,-0.92848 -2.92397,-0.41585 -6.05668,-0.65487 -3.1327,-0.23901 -6.05637,-0.17294 z" />
    </g>
  </g>
  <g
     inkscape:label="Layer 4"
     id="layer4"
     inkscape:groupmode="layer">
    <path
       sodipodi:nodetypes="csssssccccsssssssssccssscsscccccccccccc"
       id="path858"
       d="m 113.11842,113.8249 c 1.15476,-0.73642 1.5103,-3.91691 1.03943,-6.52009 -0.23263,-1.28609 -0.63028,-2.53299 -0.85044,-3.30729 -0.13841,-0.4868 -0.0395,-1.62018 0.16234,-2.81416 0.1341,-0.79339 0.31363,-1.613543 0.49911,-2.288523 0.14197,-0.51664 0.0679,-0.80141 0,-1.22843 -0.2418,-1.52157 -0.6298,-2.77198 -1.03943,-4.06324 l -0.85045,-0.94494 c -0.19569,-0.75544 -1.14978,-0.5629 -1.79539,-0.75595 l -5.38616,0.37797 h -2.07886 c -0.6966,0 -1.08689,-0.4649 -2.17337,-1.5119 -0.63547,-0.61238 -0.12201,-1.37704 0.37798,-1.6064 0.80672,-0.37007 1.47868,1.14549 2.36235,1.22842 2.88035,0.27031 9.29642,-0.86733 9.4494,-1.03943 0,0 0.65354,-0.48525 0.75595,-0.85045 0.19017,-0.67816 -0.37797,-2.07887 -0.37797,-2.07887 -0.27443,-1.50941 1.15146,-2.58927 2.64583,-2.55134 0.96164,0.0244 1.83772,0.59879 1.88988,2.26786 l 0.0945,3.02381 c 0.3875,0.96215 1.19291,1.29744 2.07887,1.5119 2.14186,0.49299 4.39839,2.25202 6.42559,1.7009 0,0 1.90656,-1.51994 2.45685,-0.85045 0.55572,0.67609 -0.54684,1.86336 -1.32292,2.26786 -1.70955,0.89103 -5.76414,-0.47247 -5.76414,-0.47247 -0.95358,-0.36894 -1.93661,0.10889 -1.88988,1.41741 l 0.0472,1.32292 c 0.0119,0.33408 0.0809,6.435623 -0.42521,10.866813 -0.95394,3.54937 -2.13905,7.65355 -1.88989,8.31548 0.0933,1.4305 0.0185,2.92822 1.32292,3.87425 l -3.59077,3.40179 c -2.21174,0.19393 -4.64671,-0.133 -6.52009,0.85044 -2.22033,-0.66157 -2.75826,-1.9961 -3.1183,-3.40178 l 1.70089,-3.02381 -21.63914,-5.76414 -0.56696,-4.7247 0.47247,-0.37798 c 9.62947,2.212 18.45528,5.06693 27.49777,7.74852 z"
       style="fill:#e63946;fill-opacity:1;stroke:none;stroke-width:0.264583px;stroke-linecap:butt;stroke-linejoin:miter;stroke-opacity:1" />
  </g>
  <g
     inkscape:label="Layer 3"
     id="layer3"
     inkscape:groupmode="layer">
    <path
       sodipodi:nodetypes="ssssssssssssssssssssssssssssssssssss"
       id="path855"
       d="m 100.554,121.88207 c -1.281,4.40365 -11.155,-5.73141 -13.63075,-1.87088 -0.62706,0.9778 2.49607,1.96096 1.87089,2.93996 -1.45119,2.27251 -5.42233,-0.33943 -8.01808,-1.06908 -1.59361,-0.44795 -4.440254,-0.35238 -4.543587,-2.00452 -0.04864,-0.7777 1.961565,-0.42468 2.004523,-1.20271 0.271615,-4.91931 -7.850246,-11.95157 -11.759861,-8.95353 -1.680435,1.28862 4.073701,4.5756 2.405427,5.87993 -2.435573,1.90423 -5.51999,-3.09101 -7.483546,-5.47902 -1.936467,-2.35506 -6.241594,-6.3625 -3.87541,-8.28536 1.555629,-1.26417 3.154622,4.7373 4.810852,3.60814 4.009224,-2.73336 0.97602,-13.938053 -3.875407,-14.031653 -2.056416,-0.0397 0.176981,6.07138 -1.870888,5.87993 -4.021341,-0.37595 -1.88868,-8.01001 -1.469982,-12.02713 0.385527,-3.69886 -0.102206,-10.80929 3.608138,-10.55715 4.619448,0.31392 -1.820441,12.51291 2.672697,13.63075 2.059087,0.51228 1.908256,-5.24276 4.009041,-4.94449 3.063467,0.43495 0.51787,8.70839 3.608138,8.55263 3.630649,-0.183 1.244391,-7.36371 3.207234,-10.42351 2.095275,-3.26624 5.545265,-10.02955 8.686261,-7.75082 3.50354,2.54175 -4.55624,7.61499 -5.211755,11.89349 -0.434323,2.8348 -1.92357,8.32729 0.935442,8.55263 3.544243,0.27935 -0.746862,-10.16943 2.80633,-10.28988 4.059303,-0.13761 2.113463,5.77589 2.567973,10.92008 0.25947,2.93682 3.19296,4.90227 3.70746,7.163263 0.26541,1.16637 1.45043,2.9818 0.40631,3.56549 -1.82786,1.02182 -2.85048,-3.89378 -4.94449,-3.87541 -0.91828,0.008 -1.2206,1.7746 -2.138158,1.73726 -2.896106,-0.11786 -3.47712,-6.748773 -6.280832,-6.013573 -1.485761,0.3896 0.173191,4.126103 -1.336347,4.409953 -3.11776,0.58626 -3.016953,-8.850113 -5.879931,-7.483553 -2.886589,1.37783 0.638984,6.528973 2.138156,9.354443 0.856773,1.61475 1.916137,3.91673 3.741775,4.00904 0.94583,0.0478 1.19123,-1.88551 2.138156,-1.87089 3.529606,0.0545 4.81704,5.2531 7.750811,7.21628 5.86427,3.92417 21.2143,2.04461 19.24341,8.81989 z"
       style="opacity:1;fill:#f1faee;fill-opacity:1;stroke:none;stroke-width:0.264583px;stroke-linecap:butt;stroke-linejoin:miter;stroke-opacity:1" />
    <path
       id="path928"
       d="M 183.00665,158.23073 V 21.388734"
       style="fill:none;fill-opacity:1;stroke:#1d3557;stroke-width:0.965;stroke-linecap:butt;stroke-linejoin:miter;stroke-miterlimit:4;stroke-dasharray:none;stroke-opacity:1" />
    <g
       style="font-size:22.5778px;line-height:0;font-family:Oswald;-inkscape-font-specification:Oswald;stroke-width:0.264583"
       id="text932"
       aria-label="surfgirl
school">
      <path
         id="path938"
         style="font-size:50.8px;line-height:1;fill:#e63946;fill-opacity:1;stroke-width:0.264583"
         d="m 214.15378,85.377202 q -3.6068,0 -5.7912,-2.2352 -2.1844,-2.286 -2.4892,-5.9944 l 4.5212,-1.3716 q 0.4064,2.794 1.3716,4.2164 0.9652,1.3716 2.8448,1.3716 1.4732,0 2.2352,-0.8128 0.762,-0.8636 0.762,-2.286 0,-1.27 -0.5588,-2.286 -0.5588,-1.016 -1.8288,-2.0828 l -5.0292,-4.317999 q -1.524,-1.3208 -2.5908,-2.9464 -1.016,-1.6256 -1.016,-4.2164 0,-2.3368 0.9144,-3.9116 0.9652,-1.6256 2.6416,-2.4384 1.7272,-0.8636 4.0132,-0.8636 3.5052,0 5.334,2.286 1.8796,2.2352 2.1336,5.4356 l -3.6576,1.3716 q -0.2032,-1.524 -0.6096,-2.6416 -0.4064,-1.1684 -1.1176,-1.778 -0.7112,-0.6604 -1.8796,-0.6604 -1.3208,0 -2.1336,0.9144 -0.762,0.8636 -0.762,2.0828 0,0.762 0.3048,1.524 0.3556,0.7112 1.1684,1.4224 l 5.1816,4.7752 q 1.0668,0.9652 1.9812,2.0828 0.9652,1.117599 1.5748,2.539999 0.6096,1.4224 0.6096,3.302 0,2.4892 -1.016,4.1656 -1.016,1.6764 -2.8448,2.54 -1.8288,0.8128 -4.2672,0.8128 z" />
      <path
         id="path940"
         style="font-size:50.8px;line-height:1;fill:#e63946;fill-opacity:1;stroke-width:0.264583"
         d="m 230.51376,85.377202 q -1.7272,0 -2.6924,-0.9144 -0.9652,-0.9144 -1.3716,-2.286 -0.3556,-1.3716 -0.3556,-2.794 V 55.608403 h 5.4356 v 22.148799 q 0,1.5748 0.4572,2.4892 0.4572,0.8636 1.8796,0.8636 0.9144,0 1.8796,-0.508 1.016,-0.5588 1.9304,-1.3208 V 55.608403 h 5.4356 v 29.362399 h -5.4356 v -2.8956 q -1.4224,1.3716 -3.2512,2.3368 -1.778,0.9652 -3.9116,0.9652 z" />
      <path
         id="path942"
         style="font-size:50.8px;line-height:1;fill:#e63946;fill-opacity:1;stroke-width:0.264583"
         d="M 248.77398,84.970802 V 55.608403 h 5.4356 v 4.1656 q 1.6256,-2.6924 3.2512,-3.6068 1.6256,-0.9144 3.2512,-0.9144 0.2032,0 0.3556,0 0.2032,0 0.508,0.0508 v 5.9944 q -0.6096,-0.254 -1.4224,-0.4064 -0.762,-0.2032 -1.5748,-0.2032 -1.27,0 -2.3368,0.6096 -1.016,0.5588 -2.032,2.2352 v 21.437599 z" />
      <path
         id="path944"
         style="font-size:50.8px;line-height:1;fill:#e63946;fill-opacity:1;stroke-width:0.264583"
         d="M 266.62065,84.970802 V 59.621603 h -3.5052 v -4.0132 h 3.5052 v -1.524 q 0,-2.7432 0.4064,-4.6736 0.4572,-1.9812 1.8288,-3.048 1.3716,-1.0668 4.1148,-1.0668 1.016,0 1.778,0.1016 0.8128,0.0508 1.778,0.254 v 3.9624 q -0.4572,-0.1016 -1.016,-0.1524 -0.5588,-0.1016 -1.016,-0.1016 -1.5748,0 -2.032,1.0668 -0.4064,1.016 -0.4064,2.7432 v 2.4384 h 4.4704 v 4.0132 h -4.4704 v 25.349199 z" />
      <path
         id="path946"
         style="font-size:50.8px;line-height:1;fill:#e63946;fill-opacity:1;stroke-width:0.264583"
         d="m 287.09861,94.064002 q -2.6416,0 -4.7752,-0.5588 -2.1336,-0.5588 -3.3528,-1.778 -1.2192,-1.2192 -1.2192,-3.2004 0,-1.4224 0.6096,-2.4892 0.6096,-1.0668 1.5748,-1.8288 0.9652,-0.8128 2.032,-1.3208 -1.4224,-0.4064 -2.1336,-1.27 -0.7112,-0.9144 -0.7112,-1.8796 0,-1.6256 0.8636,-2.794 0.8636,-1.1684 2.3876,-2.54 -1.6764,-1.27 -2.54,-3.251199 -0.8636,-1.9812 -0.8636,-5.4864 0,-3.4544 0.9144,-5.7404 0.9652,-2.3368 2.794,-3.5052 1.8796,-1.2192 4.572,-1.2192 2.3876,0 3.81,0.8128 1.4732,0.8128 2.2352,2.4384 0.254,-0.4064 1.3716,-1.3716 1.1176,-1.016 2.5908,-1.6764 l 0.8128,-0.3556 1.3716,3.5052 q -0.6604,0.1016 -1.778,0.508 -1.0668,0.3556 -2.032,0.762 -0.9144,0.3556 -1.1684,0.6096 0.3556,0.8636 0.6096,2.4892 0.3048,1.6256 0.3048,2.8956 0,2.9972 -0.762,5.2832 -0.762,2.285999 -2.54,3.606799 -1.7272,1.27 -4.826,1.27 -0.6604,0 -1.4224,-0.1016 -0.762,-0.1016 -1.3716,-0.254 -0.3048,0.4572 -0.6604,1.0668 -0.3048,0.6096 -0.3048,1.1684 0,0.5588 0.5588,0.9144 0.6096,0.3048 1.8796,0.4064 l 4.572,0.4064 q 3.4544,0.3048 5.1308,2.0828 1.6764,1.778 1.6764,5.08 0,2.3876 -1.1176,4.0132 -1.1176,1.6764 -3.4036,2.4892 -2.2352,0.8128 -5.6896,0.8128 z m 0.4064,-4.2672 q 2.8956,0 4.2672,-0.7112 1.3716,-0.6604 1.3716,-2.1844 0,-0.9144 -0.3556,-1.524 -0.3048,-0.6096 -1.1684,-0.9652 -0.8636,-0.3556 -2.4892,-0.508 l -4.6228,-0.4064 q -0.5588,0.5588 -1.0668,1.1176 -0.508,0.5588 -0.8128,1.1684 -0.3048,0.6604 -0.3048,1.3716 0,1.3208 1.1176,1.9812 1.1176,0.6604 4.064,0.6604 z m -0.254,-17.6276 q 1.1684,0 1.8288,-0.406399 0.7112,-0.4572 1.0668,-1.27 0.3556,-0.8636 0.4572,-2.0828 0.1524,-1.2192 0.1524,-2.7432 0,-1.524 -0.1524,-2.7432 -0.1016,-1.27 -0.4572,-2.1336 -0.3048,-0.9144 -1.016,-1.3716 -0.6604,-0.4572 -1.8288,-0.4572 -1.1176,0 -1.8796,0.4572 -0.7112,0.4572 -1.0668,1.3208 -0.3556,0.8128 -0.508,2.0828 -0.1524,1.2192 -0.1524,2.8448 0,1.3716 0.1016,2.5908 0.1524,1.1684 0.508,2.032 0.4064,0.8636 1.1176,1.3716 0.7112,0.507999 1.8288,0.507999 z" />
      <path
         id="path948"
         style="font-size:50.8px;line-height:1;fill:#e63946;fill-opacity:1;stroke-width:0.264583"
         d="M 301.95999,84.970802 V 55.608403 h 5.4356 v 29.362399 z m 0,-33.731199 v -5.6896 h 5.4356 v 5.6896 z" />
      <path
         id="path950"
         style="font-size:50.8px;line-height:1;fill:#e63946;fill-opacity:1;stroke-width:0.264583"
         d="M 313.36539,84.970802 V 55.608403 h 5.4356 v 4.1656 q 1.6256,-2.6924 3.2512,-3.6068 1.6256,-0.9144 3.2512,-0.9144 0.2032,0 0.3556,0 0.2032,0 0.508,0.0508 v 5.9944 q -0.6096,-0.254 -1.4224,-0.4064 -0.762,-0.2032 -1.5748,-0.2032 -1.27,0 -2.3368,0.6096 -1.016,0.5588 -2.032,2.2352 v 21.437599 z" />
      <path
         id="path952"
         style="font-size:50.8px;line-height:1;fill:#e63946;fill-opacity:1;stroke-width:0.264583"
         d="M 329.99286,84.970802 V 43.822803 h 5.4356 v 41.147999 z" />
      <path
         id="path954"
         style="font-size:50.8px;line-height:1;letter-spacing:3.175px;fill:#e63946;fill-opacity:1;stroke-width:0.264583"
         d="m 214.15378,136.1772 q -3.6068,0 -5.7912,-2.2352 -2.1844,-2.286 -2.4892,-5.9944 l 4.5212,-1.3716 q 0.4064,2.794 1.3716,4.2164 0.9652,1.3716 2.8448,1.3716 1.4732,0 2.2352,-0.8128 0.762,-0.8636 0.762,-2.286 0,-1.27 -0.5588,-2.286 -0.5588,-1.016 -1.8288,-2.0828 l -5.0292,-4.318 q -1.524,-1.3208 -2.5908,-2.9464 -1.016,-1.6256 -1.016,-4.2164 0,-2.3368 0.9144,-3.9116 0.9652,-1.6256 2.6416,-2.4384 1.7272,-0.8636 4.0132,-0.8636 3.5052,0 5.334,2.286 1.8796,2.2352 2.1336,5.4356 l -3.6576,1.3716 q -0.2032,-1.524 -0.6096,-2.6416 -0.4064,-1.1684 -1.1176,-1.778 -0.7112,-0.6604 -1.8796,-0.6604 -1.3208,0 -2.1336,0.9144 -0.762,0.8636 -0.762,2.0828 0,0.762 0.3048,1.524 0.3556,0.7112 1.1684,1.4224 l 5.1816,4.7752 q 1.0668,0.9652 1.9812,2.0828 0.9652,1.1176 1.5748,2.54 0.6096,1.4224 0.6096,3.302 0,2.4892 -1.016,4.1656 -1.016,1.6764 -2.8448,2.54 -1.8288,0.8128 -4.2672,0.8128 z" />
      <path
         id="path956"
         style="font-size:50.8px;line-height:1;letter-spacing:3.175px;fill:#e63946;fill-opacity:1;stroke-width:0.264583"
         d="m 237.49876,136.1772 q -3.6068,0 -5.4864,-1.4224 -1.8288,-1.4732 -2.4892,-4.1148 -0.6096,-2.6416 -0.6096,-6.1468 v -6.7564 q 0,-3.7084 0.6604,-6.2992 0.6604,-2.6416 2.4892,-4.0132 1.8796,-1.4224 5.4356,-1.4224 3.2004,0 4.9276,1.0668 1.778,1.016 2.4384,3.0988 0.6604,2.032 0.6604,5.08 v 1.7272 h -4.9276 v -1.778 q 0,-1.9304 -0.254,-3.048 -0.254,-1.1176 -0.9144,-1.6256 -0.6604,-0.508 -1.8796,-0.508 -1.3208,0 -2.032,0.6096 -0.7112,0.6096 -0.9652,2.0828 -0.2032,1.4224 -0.2032,3.9116 v 9.2456 q 0,3.7592 0.7112,5.0292 0.7112,1.27 2.54,1.27 1.3716,0 1.9812,-0.6096 0.6604,-0.6604 0.8128,-1.8288 0.2032,-1.1684 0.2032,-2.6416 v -2.3876 h 4.9276 v 2.032 q 0,2.9464 -0.7112,5.08 -0.6604,2.1336 -2.4384,3.2512 -1.7272,1.1176 -4.8768,1.1176 z" />
      <path
         id="path958"
         style="font-size:50.8px;line-height:1;letter-spacing:3.175px;fill:#e63946;fill-opacity:1;stroke-width:0.264583"
         d="M 253.6357,135.7708 V 94.622802 h 5.4356 V 109.4564 q 1.4732,-1.4224 3.302,-2.4384 1.8288,-1.016 4.064,-1.016 1.7272,0 2.6416,0.9144 0.9652,0.9144 1.3208,2.286 0.4064,1.3716 0.4064,2.794 v 23.7744 h -5.4356 v -22.1996 q 0,-1.5748 -0.4572,-2.4384 -0.4572,-0.8636 -1.8796,-0.8636 -0.9652,0 -2.032,0.5588 -1.016,0.5588 -1.9304,1.3716 v 23.5712 z" />
      <path
         id="path960"
         style="font-size:50.8px;line-height:1;letter-spacing:3.175px;fill:#e63946;fill-opacity:1;stroke-width:0.264583"
         d="m 287.35737,136.1772 q -3.2512,0 -5.1308,-1.3208 -1.8796,-1.3208 -2.6924,-3.7592 -0.762,-2.4384 -0.762,-5.7404 v -8.5344 q 0,-3.302 0.762,-5.7404 0.8128,-2.4384 2.6924,-3.7592 1.8796,-1.3208 5.1308,-1.3208 3.2512,0 5.08,1.3208 1.8796,1.3208 2.6416,3.7592 0.8128,2.4384 0.8128,5.7404 v 8.5344 q 0,3.302 -0.8128,5.7404 -0.762,2.4384 -2.6416,3.7592 -1.8288,1.3208 -5.08,1.3208 z m 0,-4.0132 q 1.5748,0 2.1844,-0.9144 0.6604,-0.9144 0.762,-2.3876 0.1524,-1.524 0.1524,-3.1496 v -9.1948 q 0,-1.6764 -0.1524,-3.1496 -0.1016,-1.4732 -0.762,-2.3876 -0.6096,-0.9652 -2.1844,-0.9652 -1.5748,0 -2.2352,0.9652 -0.6604,0.9144 -0.8128,2.3876 -0.1016,1.4732 -0.1016,3.1496 v 9.1948 q 0,1.6256 0.1016,3.1496 0.1524,1.4732 0.8128,2.3876 0.6604,0.9144 2.2352,0.9144 z" />
      <path
         id="path962"
         style="font-size:50.8px;line-height:1;letter-spacing:3.175px;fill:#e63946;fill-opacity:1;stroke-width:0.264583"
         d="m 312.16206,136.1772 q -3.2512,0 -5.1308,-1.3208 -1.8796,-1.3208 -2.6924,-3.7592 -0.762,-2.4384 -0.762,-5.7404 v -8.5344 q 0,-3.302 0.762,-5.7404 0.8128,-2.4384 2.6924,-3.7592 1.8796,-1.3208 5.1308,-1.3208 3.2512,0 5.08,1.3208 1.8796,1.3208 2.6416,3.7592 0.8128,2.4384 0.8128,5.7404 v 8.5344 q 0,3.302 -0.8128,5.7404 -0.762,2.4384 -2.6416,3.7592 -1.8288,1.3208 -5.08,1.3208 z m 0,-4.0132 q 1.5748,0 2.1844,-0.9144 0.6604,-0.9144 0.762,-2.3876 0.1524,-1.524 0.1524,-3.1496 v -9.1948 q 0,-1.6764 -0.1524,-3.1496 -0.1016,-1.4732 -0.762,-2.3876 -0.6096,-0.9652 -2.1844,-0.9652 -1.5748,0 -2.2352,0.9652 -0.6604,0.9144 -0.8128,2.3876 -0.1016,1.4732 -0.1016,3.1496 v 9.1948 q 0,1.6256 0.1016,3.1496 0.1524,1.4732 0.8128,2.3876 0.6604,0.9144 2.2352,0.9144 z" />
      <path
         id="path964"
         style="font-size:50.8px;line-height:1;letter-spacing:3.175px;fill:#e63946;fill-opacity:1;stroke-width:0.264583"
         d="M 329.39754,135.7708 V 94.622802 h 5.4356 V 135.7708 Z" />
    </g>
  </g>
  <g
     inkscape:label="Layer 2"
     id="layer2"
     inkscape:groupmode="layer">
    <path
       sodipodi:nodetypes="sssssssssssssssssssssssss"
       id="path852"
       d="m 65.871392,73.948407 c -1.850384,-1.43408 1.593524,-4.44074 2.834823,-6.4256 0.853237,-1.36434 4.020453,-2.35276 3.118302,-3.68527 -1.675253,-2.4744 -6.803375,5.29154 -8.504465,2.83483 -1.708257,-2.46706 3.191907,-5.29983 5.669643,-6.99256 2.633271,-1.79899 6.725111,-5.02439 9.113665,-2.91127 0.62816,0.55573 -1.07275,1.89142 -0.467722,2.47224 3.628502,3.48334 9.815852,-4.61042 14.699822,-3.40769 1.12712,0.27756 1.58949,1.77647 2.63929,2.27179 2.54491,1.20076 6.21891,-0.43666 8.31876,1.43658 0.85727,0.76476 0.20109,2.45288 0.96885,3.30746 1.57838,1.75687 4.82949,1.08616 6.54811,2.7061 1.43163,1.34943 3.8481,3.81422 2.57247,5.31198 -2.23876,2.6286 -6.50475,-2.482 -9.92238,-2.97337 -1.98415,-0.28527 -4.01891,-0.16549 -6.01357,0.0334 -2.59702,0.25895 -6.36391,3.75482 -7.684,1.50339 -0.58347,-0.99511 1.37862,-1.87019 2.23838,-2.63929 1.10036,-0.98433 4.20391,-1.09387 3.67496,-2.47224 -0.9107,-2.37315 -5.05687,0.57542 -7.55036,1.06908 -2.51442,0.4978 -6.01812,4.03018 -7.45014,1.90429 -0.61845,-0.91811 1.26,-1.82432 1.97111,-2.67269 0.78938,-0.94175 3.20697,-1.64124 2.53906,-2.6727 -1.62339,-2.507 -5.866216,1.47935 -8.452396,2.97338 -2.516459,1.45375 -4.370856,3.83282 -6.614922,5.67947 -1.39212,1.14558 -2.822283,4.4531 -4.24729,3.34869 z"
       style="opacity:1;fill:#f1faee;fill-opacity:1;stroke:none;stroke-width:0.264583px;stroke-linecap:butt;stroke-linejoin:miter;stroke-opacity:1" />
  </g>
</svg>
