<?xml version="1.0" encoding="UTF-8" standalone="no"?>
<svg
   xmlns:dc="http://purl.org/dc/elements/1.1/"
   xmlns:cc="http://creativecommons.org/ns#"
   xmlns:rdf="http://www.w3.org/1999/02/22-rdf-syntax-ns#"
   xmlns:svg="http://www.w3.org/2000/svg"
   xmlns="http://www.w3.org/2000/svg"
   xmlns:sodipodi="http://sodipodi.sourceforge.net/DTD/sodipodi-0.dtd"
   xmlns:inkscape="http://www.inkscape.org/namespaces/inkscape"
   sodipodi:docname="textomain.svg"
   inkscape:version="1.0 (4035a4fb49, 2020-05-01)"
   id="svg1589"
   version="1.1"
   viewBox="0 0 340 80"
   height="80mm"
   width="340mm">
  <defs
     id="defs1583" />
  <sodipodi:namedview
     inkscape:window-maximized="1"
     inkscape:window-y="-8"
     inkscape:window-x="-8"
     inkscape:window-height="702"
     inkscape:window-width="1366"
     showgrid="false"
     inkscape:document-rotation="0"
     inkscape:current-layer="layer1"
     inkscape:document-units="mm"
     inkscape:cy="151.1811"
     inkscape:cx="642.51969"
     inkscape:zoom="0.33361702"
     inkscape:pageshadow="2"
     inkscape:pageopacity="0.0"
     borderopacity="1.0"
     bordercolor="#666666"
     pagecolor="#ffffff"
     id="base" />
  <metadata
     id="metadata1586">
    <rdf:RDF>
      <cc:Work
         rdf:about="">
        <dc:format>image/svg+xml</dc:format>
        <dc:type
           rdf:resource="http://purl.org/dc/dcmitype/StillImage" />
        <dc:title></dc:title>
      </cc:Work>
    </rdf:RDF>
  </metadata>
  <g
     id="layer1"
     inkscape:groupmode="layer"
     inkscape:label="Layer 1">
    <g
       style="font-size:22.5778px;line-height:0;font-family:Oswald;-inkscape-font-specification:Oswald;fill:#f1faee;fill-opacity:1;stroke-width:0.264583"
       id="text2154"
       aria-label="Surf e lazer para toda a família
As melhores ondas estão aqui‎
Faça uma aula experimental sem comrpomisso">
      <path
         id="path2160"
         style="font-style:normal;font-variant:normal;font-weight:bold;font-stretch:normal;font-size:25.4px;line-height:1.15;font-family:Oswald;-inkscape-font-specification:'Oswald Bold';fill:#f1faee;fill-opacity:1;stroke-width:0.264583"
         d="m 15.954773,28.214357 q -1.9304,0 -3.2258,-0.6858 -1.2954,-0.6858 -1.9558,-2.1082 -0.6604,-1.4478 -0.7366,-3.7338 l 3.8862,-0.5842 q 0.0254,1.3208 0.2286,2.1336 0.2286,0.8128 0.6096,1.1684 0.4064,0.3556 0.9652,0.3556 0.7112,0 0.9144,-0.4826 0.2286,-0.4826 0.2286,-1.016 0,-1.27 -0.6096,-2.1336 -0.6096,-0.889 -1.651,-1.778 l -1.778,-1.5494 q -1.1684,-0.990599 -1.9812,-2.235199 -0.7874,-1.27 -0.7874,-3.1242 0,-2.6162004 1.5494,-3.9878004 1.5494,-1.3969999 4.2164,-1.3969999 1.651,0 2.6416,0.5587999 1.016,0.5588 1.524,1.4732 0.5334,0.889 0.7112,1.9050004 0.2032,0.9906 0.2286,1.905 l -3.9116,0.4826 q -0.0254,-0.9144 -0.127,-1.5748 -0.0762,-0.6858 -0.3556,-1.0414 -0.2794,-0.381 -0.8636,-0.381 -0.635,0 -0.9398,0.5334 -0.2794,0.5334 -0.2794,1.0668 0,1.143 0.5334,1.8796 0.5588,0.7112 1.4478,1.4986 l 1.7018,1.4986 q 1.3462,1.142999 2.2606,2.590799 0.9398,1.4478 0.9398,3.5814 0,1.4478 -0.6604,2.6416 -0.6604,1.1684 -1.8796,1.8542 -1.1938,0.6858 -2.8448,0.6858 z" />
      <path
         id="path2162"
         style="font-style:normal;font-variant:normal;font-weight:bold;font-stretch:normal;font-size:25.4px;line-height:1.15;font-family:Oswald;-inkscape-font-specification:'Oswald Bold';fill:#f1faee;fill-opacity:1;stroke-width:0.264583"
         d="m 25.903238,28.163557 q -0.889,0 -1.524,-0.4318 -0.6096,-0.4572 -0.9144,-1.2446 -0.3048,-0.7874 -0.3048,-1.7526 V 13.228358 h 4.1402 v 11.023599 q 0,0.5334 0.1778,0.8382 0.2032,0.2794 0.6858,0.2794 0.2794,0 0.5842,-0.127 0.3048,-0.1524 0.635,-0.3302 V 13.228358 h 4.1148 v 14.681199 h -4.1148 v -1.3462 q -0.7874,0.7366 -1.6764,1.1684 -0.8636,0.4318 -1.8034,0.4318 z" />
      <path
         id="path2164"
         style="font-style:normal;font-variant:normal;font-weight:bold;font-stretch:normal;font-size:25.4px;line-height:1.15;font-family:Oswald;-inkscape-font-specification:'Oswald Bold';fill:#f1faee;fill-opacity:1;stroke-width:0.264583"
         d="M 36.162457,27.909557 V 13.228358 h 4.140199 v 2.4384 q 0.7112,-1.27 1.4224,-1.9304 0.7112,-0.6858 1.7272,-0.6858 0.2032,0 0.3556,0.0254 0.1524,0 0.2794,0.0508 v 4.1148 q -0.2794,-0.127 -0.635,-0.2032 -0.3302,-0.1016 -0.7112,-0.1016 -0.7112,0 -1.3208,0.381 -0.6096,0.380999 -1.1176,1.041399 v 9.5504 z" />
      <path
         id="path2166"
         style="font-style:normal;font-variant:normal;font-weight:bold;font-stretch:normal;font-size:25.4px;line-height:1.15;font-family:Oswald;-inkscape-font-specification:'Oswald Bold';fill:#f1faee;fill-opacity:1;stroke-width:0.264583"
         d="M 46.368493,27.909557 V 16.022358 h -1.397 v -2.794 h 1.397 v -1.0922 q 0,-1.2954 0.254,-2.2606004 0.2794,-0.9652 1.1176,-1.4986 0.8636,-0.5334 2.6416,-0.5334 0.4826,0 0.9398,0.0254 0.4826,0.0254 1.0414,0.1016 v 3.0734004 q -0.1778,-0.0508 -0.4318,-0.0762 -0.2286,-0.0508 -0.4572,-0.0508 -0.4572,0 -0.7112,0.2794 -0.254,0.254 -0.254,0.8636 v 1.1684 h 1.8542 v 2.794 h -1.8542 v 11.887199 z" />
      <path
         id="path2168"
         style="font-style:normal;font-variant:normal;font-weight:bold;font-stretch:normal;font-size:25.4px;line-height:1.15;font-family:Oswald;-inkscape-font-specification:'Oswald Bold';fill:#f1faee;fill-opacity:1;stroke-width:0.264583"
         d="m 65.270458,28.163557 q -1.6002,0 -2.7432,-0.5588 -1.143,-0.5842 -1.7526,-1.6764 -0.6096,-1.1176 -0.6096,-2.667 v -5.3848 q 0,-1.574799 0.6096,-2.666999 0.6096,-1.0922 1.7526,-1.651 1.1684,-0.5842 2.7432,-0.5842 1.6256,0 2.6924,0.5588 1.0922,0.5588 1.6256,1.651 0.5588,1.0922 0.5588,2.692399 v 2.9464 h -5.8928 v 2.8194 q 0,0.5588 0.127,0.9144 0.127,0.3556 0.3556,0.508 0.2286,0.1524 0.5334,0.1524 0.3048,0 0.5334,-0.127 0.254,-0.1524 0.381,-0.4572 0.1524,-0.3048 0.1524,-0.8382 v -1.5494 h 3.81 v 1.4224 q 0,2.2352 -1.2954,3.3782 -1.2954,1.1176 -3.5814,1.1176 z m -1.016,-9.271 h 2.0828 v -1.473199 q 0,-0.5842 -0.1524,-0.9144 -0.127,-0.3302 -0.381,-0.4572 -0.2286,-0.127 -0.5588,-0.127 -0.3048,0 -0.5334,0.1524 -0.2032,0.1524 -0.3302,0.5334 -0.127,0.3556 -0.127,1.041399 z" />
      <path
         id="path2170"
         style="font-style:normal;font-variant:normal;font-weight:bold;font-stretch:normal;font-size:25.4px;line-height:1.15;font-family:Oswald;-inkscape-font-specification:'Oswald Bold';fill:#f1faee;fill-opacity:1;stroke-width:0.264583"
         d="M 79.102344,27.909557 V 7.3355577 h 4.1148 V 27.909557 Z" />
      <path
         id="path2172"
         style="font-style:normal;font-variant:normal;font-weight:bold;font-stretch:normal;font-size:25.4px;line-height:1.15;font-family:Oswald;-inkscape-font-specification:'Oswald Bold';fill:#f1faee;fill-opacity:1;stroke-width:0.264583"
         d="m 88.892456,28.163557 q -1.1176,0 -1.8796,-0.5334 -0.762,-0.5334 -1.143,-1.3462 -0.381,-0.8382 -0.381,-1.7018 0,-1.3716 0.5334,-2.3114 0.5588,-0.9398 1.4478,-1.5748 0.889,-0.635 1.9558,-1.0668 1.0668,-0.4572 2.1082,-0.8128 v -1.473199 q 0,-0.381 -0.0762,-0.6604 -0.0762,-0.3048 -0.254,-0.4572 -0.1778,-0.1778 -0.5334,-0.1778 -0.3556,0 -0.5588,0.1524 -0.1778,0.1524 -0.254,0.4318 -0.0762,0.254 -0.1016,0.5842 l -0.1016,1.066799 -3.8608,-0.1524 q 0.127,-2.641599 1.397,-3.886199 1.2954,-1.27 3.8608,-1.27 2.2352,0 3.3274,1.2446 1.1176,1.2192 1.1176,3.175 v 6.857999 q 0,0.9144 0.0254,1.6002 0.0508,0.6858 0.1016,1.1938 0.0762,0.508 0.127,0.8636 h -3.7084 q -0.0762,-0.5842 -0.1778,-1.27 -0.1016,-0.6858 -0.1524,-0.8128 -0.254,0.9144 -0.9652,1.6256 -0.6858,0.7112 -1.8542,0.7112 z m 1.4732,-2.794 q 0.254,0 0.4572,-0.1016 0.2286,-0.1016 0.4064,-0.2794 0.1778,-0.1778 0.3048,-0.3556 v -4.0132 q -0.508,0.3048 -0.9398,0.635 -0.4318,0.3048 -0.7366,0.6858 -0.3048,0.381 -0.4826,0.8382 -0.1524,0.4318 -0.1524,0.9906 0,0.7366 0.3048,1.1684 0.3048,0.4318 0.8382,0.4318 z" />
      <path
         id="path2174"
         style="font-style:normal;font-variant:normal;font-weight:bold;font-stretch:normal;font-size:25.4px;line-height:1.15;font-family:Oswald;-inkscape-font-specification:'Oswald Bold';fill:#f1faee;fill-opacity:1;stroke-width:0.264583"
         d="m 97.568147,27.909557 v -2.667 l 4.038603,-8.991599 h -3.733803 v -3.0226 h 8.051803 v 2.5146 l -4.0894,9.143999 h 4.1402 v 3.0226 z" />
      <path
         id="path2176"
         style="font-style:normal;font-variant:normal;font-weight:bold;font-stretch:normal;font-size:25.4px;line-height:1.15;font-family:Oswald;-inkscape-font-specification:'Oswald Bold';fill:#f1faee;fill-opacity:1;stroke-width:0.264583"
         d="m 112.74663,28.163557 q -1.6002,0 -2.7432,-0.5588 -1.143,-0.5842 -1.7526,-1.6764 -0.6096,-1.1176 -0.6096,-2.667 v -5.3848 q 0,-1.574799 0.6096,-2.666999 0.6096,-1.0922 1.7526,-1.651 1.1684,-0.5842 2.7432,-0.5842 1.6256,0 2.6924,0.5588 1.0922,0.5588 1.6256,1.651 0.5588,1.0922 0.5588,2.692399 v 2.9464 h -5.8928 v 2.8194 q 0,0.5588 0.127,0.9144 0.127,0.3556 0.3556,0.508 0.2286,0.1524 0.5334,0.1524 0.3048,0 0.5334,-0.127 0.254,-0.1524 0.381,-0.4572 0.1524,-0.3048 0.1524,-0.8382 v -1.5494 h 3.81 v 1.4224 q 0,2.2352 -1.2954,3.3782 -1.2954,1.1176 -3.5814,1.1176 z m -1.016,-9.271 h 2.0828 v -1.473199 q 0,-0.5842 -0.1524,-0.9144 -0.127,-0.3302 -0.381,-0.4572 -0.2286,-0.127 -0.5588,-0.127 -0.3048,0 -0.5334,0.1524 -0.2032,0.1524 -0.3302,0.5334 -0.127,0.3556 -0.127,1.041399 z" />
      <path
         id="path2178"
         style="font-style:normal;font-variant:normal;font-weight:bold;font-stretch:normal;font-size:25.4px;line-height:1.15;font-family:Oswald;-inkscape-font-specification:'Oswald Bold';fill:#f1faee;fill-opacity:1;stroke-width:0.264583"
         d="M 119.95269,27.909557 V 13.228358 h 4.1402 v 2.4384 q 0.7112,-1.27 1.4224,-1.9304 0.7112,-0.6858 1.7272,-0.6858 0.2032,0 0.3556,0.0254 0.1524,0 0.2794,0.0508 v 4.1148 q -0.2794,-0.127 -0.635,-0.2032 -0.3302,-0.1016 -0.7112,-0.1016 -0.7112,0 -1.3208,0.381 -0.6096,0.380999 -1.1176,1.041399 v 9.5504 z" />
      <path
         id="path2180"
         style="font-style:normal;font-variant:normal;font-weight:bold;font-stretch:normal;font-size:25.4px;line-height:1.15;font-family:Oswald;-inkscape-font-specification:'Oswald Bold';fill:#f1faee;fill-opacity:1;stroke-width:0.264583"
         d="M 136.12415,32.735557 V 13.228358 h 4.1402 v 1.0668 q 0.7366,-0.6604 1.5748,-0.9906 0.8382,-0.3302 1.6002,-0.3302 0.8382,0 1.4224,0.3302 0.6096,0.3302 0.9906,0.9398 0.381,0.5842 0.5588,1.3716 0.1778,0.7874 0.1778,1.6764 v 6.324599 q 0,1.3716 -0.381,2.3876 -0.3556,1.016 -1.0668,1.6002 -0.7112,0.5588 -1.7526,0.5588 -0.7874,0 -1.6002,-0.3556 -0.7874,-0.381 -1.524,-1.016 v 5.9436 z m 5.2324,-7.239 q 0.4064,0 0.635,-0.2286 0.2286,-0.2286 0.3302,-0.5842 0.127,-0.381 0.127,-0.8382 v -6.857999 q 0,-0.4318 -0.1016,-0.762 -0.1016,-0.3556 -0.3302,-0.5588 -0.2286,-0.2032 -0.5842,-0.2032 -0.3302,0 -0.635,0.1524 -0.2794,0.127 -0.5334,0.3556 v 9.143999 q 0.2794,0.1778 0.5334,0.2794 0.2794,0.1016 0.5588,0.1016 z" />
      <path
         id="path2182"
         style="font-style:normal;font-variant:normal;font-weight:bold;font-stretch:normal;font-size:25.4px;line-height:1.15;font-family:Oswald;-inkscape-font-specification:'Oswald Bold';fill:#f1faee;fill-opacity:1;stroke-width:0.264583"
         d="m 151.99558,28.163557 q -1.1176,0 -1.8796,-0.5334 -0.762,-0.5334 -1.143,-1.3462 -0.381,-0.8382 -0.381,-1.7018 0,-1.3716 0.5334,-2.3114 0.5588,-0.9398 1.4478,-1.5748 0.889,-0.635 1.9558,-1.0668 1.0668,-0.4572 2.1082,-0.8128 v -1.473199 q 0,-0.381 -0.0762,-0.6604 -0.0762,-0.3048 -0.254,-0.4572 -0.1778,-0.1778 -0.5334,-0.1778 -0.3556,0 -0.5588,0.1524 -0.1778,0.1524 -0.254,0.4318 -0.0762,0.254 -0.1016,0.5842 l -0.1016,1.066799 -3.8608,-0.1524 q 0.127,-2.641599 1.397,-3.886199 1.2954,-1.27 3.8608,-1.27 2.2352,0 3.3274,1.2446 1.1176,1.2192 1.1176,3.175 v 6.857999 q 0,0.9144 0.0254,1.6002 0.0508,0.6858 0.1016,1.1938 0.0762,0.508 0.127,0.8636 h -3.7084 q -0.0762,-0.5842 -0.1778,-1.27 -0.1016,-0.6858 -0.1524,-0.8128 -0.254,0.9144 -0.9652,1.6256 -0.6858,0.7112 -1.8542,0.7112 z m 1.4732,-2.794 q 0.254,0 0.4572,-0.1016 0.2286,-0.1016 0.4064,-0.2794 0.1778,-0.1778 0.3048,-0.3556 v -4.0132 q -0.508,0.3048 -0.9398,0.635 -0.4318,0.3048 -0.7366,0.6858 -0.3048,0.381 -0.4826,0.8382 -0.1524,0.4318 -0.1524,0.9906 0,0.7366 0.3048,1.1684 0.3048,0.4318 0.8382,0.4318 z" />
      <path
         id="path2184"
         style="font-style:normal;font-variant:normal;font-weight:bold;font-stretch:normal;font-size:25.4px;line-height:1.15;font-family:Oswald;-inkscape-font-specification:'Oswald Bold';fill:#f1faee;fill-opacity:1;stroke-width:0.264583"
         d="M 161.12847,27.909557 V 13.228358 h 4.1402 v 2.4384 q 0.7112,-1.27 1.4224,-1.9304 0.7112,-0.6858 1.7272,-0.6858 0.2032,0 0.3556,0.0254 0.1524,0 0.2794,0.0508 v 4.1148 q -0.2794,-0.127 -0.635,-0.2032 -0.3302,-0.1016 -0.7112,-0.1016 -0.7112,0 -1.3208,0.381 -0.6096,0.380999 -1.1176,1.041399 v 9.5504 z" />
      <path
         id="path2186"
         style="font-style:normal;font-variant:normal;font-weight:bold;font-stretch:normal;font-size:25.4px;line-height:1.15;font-family:Oswald;-inkscape-font-specification:'Oswald Bold';fill:#f1faee;fill-opacity:1;stroke-width:0.264583"
         d="m 173.7245,28.163557 q -1.1176,0 -1.8796,-0.5334 -0.762,-0.5334 -1.143,-1.3462 -0.381,-0.8382 -0.381,-1.7018 0,-1.3716 0.5334,-2.3114 0.5588,-0.9398 1.4478,-1.5748 0.889,-0.635 1.9558,-1.0668 1.0668,-0.4572 2.10819,-0.8128 v -1.473199 q 0,-0.381 -0.0762,-0.6604 -0.0762,-0.3048 -0.254,-0.4572 -0.1778,-0.1778 -0.53339,-0.1778 -0.3556,0 -0.5588,0.1524 -0.1778,0.1524 -0.254,0.4318 -0.0762,0.254 -0.1016,0.5842 l -0.1016,1.066799 -3.8608,-0.1524 q 0.127,-2.641599 1.397,-3.886199 1.2954,-1.27 3.86079,-1.27 2.2352,0 3.3274,1.2446 1.1176,1.2192 1.1176,3.175 v 6.857999 q 0,0.9144 0.0254,1.6002 0.0508,0.6858 0.1016,1.1938 0.0762,0.508 0.127,0.8636 h -3.7084 q -0.0762,-0.5842 -0.1778,-1.27 -0.1016,-0.6858 -0.1524,-0.8128 -0.254,0.9144 -0.96519,1.6256 -0.6858,0.7112 -1.8542,0.7112 z m 1.4732,-2.794 q 0.254,0 0.4572,-0.1016 0.22859,-0.1016 0.40639,-0.2794 0.1778,-0.1778 0.3048,-0.3556 v -4.0132 q -0.508,0.3048 -0.93979,0.635 -0.4318,0.3048 -0.7366,0.6858 -0.3048,0.381 -0.4826,0.8382 -0.1524,0.4318 -0.1524,0.9906 0,0.7366 0.3048,1.1684 0.3048,0.4318 0.8382,0.4318 z" />
      <path
         id="path2188"
         style="font-style:normal;font-variant:normal;font-weight:bold;font-stretch:normal;font-size:25.4px;line-height:1.15;font-family:Oswald;-inkscape-font-specification:'Oswald Bold';fill:#f1faee;fill-opacity:1;stroke-width:0.264583"
         d="m 193.85201,28.061957 q -1.651,0 -2.5654,-0.4826 -0.889,-0.4826 -1.2192,-1.397 -0.3302,-0.9398 -0.3302,-2.2606 v -7.975599 h -1.4224 v -2.7178 h 1.4224 V 8.7579576 h 4.191 v 4.4704004 h 2.0828 v 2.7178 h -2.0828 v 7.569199 q 0,0.635 0.3556,0.9144 0.381,0.2794 0.9398,0.2794 0.3302,0 0.6096,-0.0254 0.2794,-0.0508 0.508,-0.0762 v 3.2512 q -0.3302,0.0508 -1.0414,0.127 -0.7112,0.0762 -1.4478,0.0762 z" />
      <path
         id="path2190"
         style="font-style:normal;font-variant:normal;font-weight:bold;font-stretch:normal;font-size:25.4px;line-height:1.15;font-family:Oswald;-inkscape-font-specification:'Oswald Bold';fill:#f1faee;fill-opacity:1;stroke-width:0.264583"
         d="m 203.1107,28.163557 q -1.5748,0 -2.7432,-0.5334 -1.143,-0.5334 -1.778,-1.6002 -0.6096,-1.0668 -0.6096,-2.667 v -5.588 q 0,-1.600199 0.6096,-2.666999 0.635,-1.0668 1.778,-1.6002 1.1684,-0.5334 2.7432,-0.5334 1.5748,0 2.7178,0.5334 1.1684,0.5334 1.8034,1.6002 0.635,1.0668 0.635,2.666999 v 5.588 q 0,1.6002 -0.635,2.667 -0.635,1.0668 -1.8034,1.6002 -1.143,0.5334 -2.7178,0.5334 z m 0.0254,-2.7432 q 0.4064,0 0.635,-0.2032 0.2286,-0.2286 0.3048,-0.6096 0.1016,-0.4064 0.1016,-0.9652 v -6.1468 q 0,-0.558799 -0.1016,-0.939799 -0.0762,-0.4064 -0.3048,-0.6096 -0.2286,-0.2286 -0.635,-0.2286 -0.4064,0 -0.635,0.2286 -0.2286,0.2032 -0.3302,0.6096 -0.1016,0.381 -0.1016,0.939799 v 6.1468 q 0,0.5588 0.1016,0.9652 0.1016,0.381 0.3302,0.6096 0.2286,0.2032 0.635,0.2032 z" />
      <path
         id="path2192"
         style="font-style:normal;font-variant:normal;font-weight:bold;font-stretch:normal;font-size:25.4px;line-height:1.15;font-family:Oswald;-inkscape-font-specification:'Oswald Bold';fill:#f1faee;fill-opacity:1;stroke-width:0.264583"
         d="m 213.71321,28.163557 q -1.6256,0 -2.5146,-1.143 -0.889,-1.143 -0.889,-3.3782 v -6.0706 q 0,-1.371599 0.381,-2.387599 0.381,-1.0414 1.143,-1.6256 0.762,-0.5842 1.8796,-0.5842 0.8128,0 1.5494,0.3302 0.7366,0.3048 1.3462,0.8382 V 7.3355577 h 4.1402 V 27.909557 h -4.1402 v -1.143 q -0.6858,0.6604 -1.4224,1.0414 -0.7366,0.3556 -1.4732,0.3556 z m 1.8034,-2.6416 q 0.2032,0 0.4826,-0.1016 0.3048,-0.1016 0.6096,-0.2794 v -9.270999 q -0.254,-0.127 -0.5334,-0.2286 -0.2794,-0.1016 -0.5334,-0.1016 -0.5588,0 -0.8128,0.4826 -0.254,0.4572 -0.254,1.1176 v 6.756399 q 0,0.4572 0.1016,0.8382 0.1016,0.3556 0.3302,0.5842 0.2286,0.2032 0.6096,0.2032 z" />
      <path
         id="path2194"
         style="font-style:normal;font-variant:normal;font-weight:bold;font-stretch:normal;font-size:25.4px;line-height:1.15;font-family:Oswald;-inkscape-font-specification:'Oswald Bold';fill:#f1faee;fill-opacity:1;stroke-width:0.264583"
         d="m 226.36004,28.163557 q -1.1176,0 -1.8796,-0.5334 -0.762,-0.5334 -1.143,-1.3462 -0.381,-0.8382 -0.381,-1.7018 0,-1.3716 0.5334,-2.3114 0.5588,-0.9398 1.4478,-1.5748 0.889,-0.635 1.9558,-1.0668 1.0668,-0.4572 2.1082,-0.8128 v -1.473199 q 0,-0.381 -0.0762,-0.6604 -0.0762,-0.3048 -0.254,-0.4572 -0.1778,-0.1778 -0.5334,-0.1778 -0.3556,0 -0.5588,0.1524 -0.1778,0.1524 -0.254,0.4318 -0.0762,0.254 -0.1016,0.5842 l -0.1016,1.066799 -3.8608,-0.1524 q 0.127,-2.641599 1.397,-3.886199 1.2954,-1.27 3.8608,-1.27 2.2352,0 3.3274,1.2446 1.1176,1.2192 1.1176,3.175 v 6.857999 q 0,0.9144 0.0254,1.6002 0.0508,0.6858 0.1016,1.1938 0.0762,0.508 0.127,0.8636 h -3.7084 q -0.0762,-0.5842 -0.1778,-1.27 -0.1016,-0.6858 -0.1524,-0.8128 -0.254,0.9144 -0.9652,1.6256 -0.6858,0.7112 -1.8542,0.7112 z m 1.4732,-2.794 q 0.254,0 0.4572,-0.1016 0.2286,-0.1016 0.4064,-0.2794 0.1778,-0.1778 0.3048,-0.3556 v -4.0132 q -0.508,0.3048 -0.9398,0.635 -0.4318,0.3048 -0.7366,0.6858 -0.3048,0.381 -0.4826,0.8382 -0.1524,0.4318 -0.1524,0.9906 0,0.7366 0.3048,1.1684 0.3048,0.4318 0.8382,0.4318 z" />
      <path
         id="path2196"
         style="font-style:normal;font-variant:normal;font-weight:bold;font-stretch:normal;font-size:25.4px;line-height:1.15;font-family:Oswald;-inkscape-font-specification:'Oswald Bold';fill:#f1faee;fill-opacity:1;stroke-width:0.264583"
         d="m 244.96355,28.163557 q -1.1176,0 -1.8796,-0.5334 -0.762,-0.5334 -1.143,-1.3462 -0.381,-0.8382 -0.381,-1.7018 0,-1.3716 0.5334,-2.3114 0.5588,-0.9398 1.4478,-1.5748 0.889,-0.635 1.9558,-1.0668 1.0668,-0.4572 2.1082,-0.8128 v -1.473199 q 0,-0.381 -0.0762,-0.6604 -0.0762,-0.3048 -0.254,-0.4572 -0.1778,-0.1778 -0.5334,-0.1778 -0.3556,0 -0.5588,0.1524 -0.1778,0.1524 -0.254,0.4318 -0.0762,0.254 -0.1016,0.5842 l -0.1016,1.066799 -3.8608,-0.1524 q 0.127,-2.641599 1.397,-3.886199 1.2954,-1.27 3.8608,-1.27 2.2352,0 3.3274,1.2446 1.1176,1.2192 1.1176,3.175 v 6.857999 q 0,0.9144 0.0254,1.6002 0.0508,0.6858 0.1016,1.1938 0.0762,0.508 0.127,0.8636 h -3.7084 q -0.0762,-0.5842 -0.1778,-1.27 -0.1016,-0.6858 -0.1524,-0.8128 -0.254,0.9144 -0.9652,1.6256 -0.6858,0.7112 -1.8542,0.7112 z m 1.4732,-2.794 q 0.254,0 0.4572,-0.1016 0.2286,-0.1016 0.4064,-0.2794 0.1778,-0.1778 0.3048,-0.3556 v -4.0132 q -0.508,0.3048 -0.9398,0.635 -0.4318,0.3048 -0.7366,0.6858 -0.3048,0.381 -0.4826,0.8382 -0.1524,0.4318 -0.1524,0.9906 0,0.7366 0.3048,1.1684 0.3048,0.4318 0.8382,0.4318 z" />
      <path
         id="path2198"
         style="font-style:normal;font-variant:normal;font-weight:bold;font-stretch:normal;font-size:25.4px;line-height:1.15;font-family:Oswald;-inkscape-font-specification:'Oswald Bold';fill:#f1faee;fill-opacity:1;stroke-width:0.264583"
         d="M 261.07787,27.909557 V 16.022358 h -1.397 v -2.794 h 1.397 v -1.0922 q 0,-1.2954 0.254,-2.2606004 0.2794,-0.9652 1.1176,-1.4986 0.8636,-0.5334 2.6416,-0.5334 0.4826,0 0.9398,0.0254 0.4826,0.0254 1.0414,0.1016 v 3.0734004 q -0.1778,-0.0508 -0.4318,-0.0762 -0.2286,-0.0508 -0.4572,-0.0508 -0.4572,0 -0.7112,0.2794 -0.254,0.254 -0.254,0.8636 v 1.1684 h 1.8542 v 2.794 h -1.8542 v 11.887199 z" />
      <path
         id="path2200"
         style="font-style:normal;font-variant:normal;font-weight:bold;font-stretch:normal;font-size:25.4px;line-height:1.15;font-family:Oswald;-inkscape-font-specification:'Oswald Bold';fill:#f1faee;fill-opacity:1;stroke-width:0.264583"
         d="m 271.703,28.163557 q -1.1176,0 -1.8796,-0.5334 -0.762,-0.5334 -1.143,-1.3462 -0.381,-0.8382 -0.381,-1.7018 0,-1.3716 0.5334,-2.3114 0.5588,-0.9398 1.4478,-1.5748 0.889,-0.635 1.9558,-1.0668 1.0668,-0.4572 2.1082,-0.8128 v -1.473199 q 0,-0.381 -0.0762,-0.6604 -0.0762,-0.3048 -0.254,-0.4572 -0.1778,-0.1778 -0.5334,-0.1778 -0.3556,0 -0.5588,0.1524 -0.1778,0.1524 -0.254,0.4318 -0.0762,0.254 -0.1016,0.5842 l -0.1016,1.066799 -3.8608,-0.1524 q 0.127,-2.641599 1.397,-3.886199 1.2954,-1.27 3.8608,-1.27 2.2352,0 3.3274,1.2446 1.1176,1.2192 1.1176,3.175 v 6.857999 q 0,0.9144 0.0254,1.6002 0.0508,0.6858 0.1016,1.1938 0.0762,0.508 0.127,0.8636 h -3.7084 q -0.0762,-0.5842 -0.1778,-1.27 -0.1016,-0.6858 -0.1524,-0.8128 -0.254,0.9144 -0.9652,1.6256 -0.6858,0.7112 -1.8542,0.7112 z m 1.4732,-2.794 q 0.254,0 0.4572,-0.1016 0.2286,-0.1016 0.4064,-0.2794 0.1778,-0.1778 0.3048,-0.3556 v -4.0132 q -0.508,0.3048 -0.9398,0.635 -0.4318,0.3048 -0.7366,0.6858 -0.3048,0.381 -0.4826,0.8382 -0.1524,0.4318 -0.1524,0.9906 0,0.7366 0.3048,1.1684 0.3048,0.4318 0.8382,0.4318 z" />
      <path
         id="path2202"
         style="font-style:normal;font-variant:normal;font-weight:bold;font-stretch:normal;font-size:25.4px;line-height:1.15;font-family:Oswald;-inkscape-font-specification:'Oswald Bold';fill:#f1faee;fill-opacity:1;stroke-width:0.264583"
         d="M 280.7851,27.909557 V 13.228358 h 4.064 v 1.1684 q 0.8128,-0.7874 1.6764,-1.1176 0.889,-0.3302 1.8034,-0.3302 0.889,0 1.524,0.4572 0.6604,0.4318 0.9906,1.2954 0.8636,-0.9652 1.8034,-1.3462 0.9652,-0.4064 1.9304,-0.4064 0.8636,0 1.4986,0.4318 0.635,0.4064 0.9906,1.2192 0.3556,0.7874 0.3556,1.905 v 11.404599 h -4.064 V 16.936758 q 0,-0.6096 -0.2286,-0.8636 -0.2032,-0.2794 -0.635,-0.2794 -0.254,0 -0.635,0.1524 -0.381,0.127 -0.7366,0.381 0,0.0508 0,0.1016 0,0.0254 0,0.0762 v 11.404599 h -4.0132 V 16.936758 q 0,-0.6096 -0.2286,-0.8636 -0.2286,-0.2794 -0.6604,-0.2794 -0.2794,0 -0.6604,0.1524 -0.3556,0.127 -0.7112,0.381 v 11.582399 z" />
      <path
         id="path2204"
         style="font-style:normal;font-variant:normal;font-weight:bold;font-stretch:normal;font-size:25.4px;line-height:1.15;font-family:Oswald;-inkscape-font-specification:'Oswald Bold';fill:#f1faee;fill-opacity:1;stroke-width:0.264583"
         d="M 300.1375,27.909557 V 13.228358 h 4.1402 v 14.681199 z m 0.7112,-16.306799 1.6002,-5.1054003 h 4.2164 l -3.2004,5.1054003 z" />
      <path
         id="path2206"
         style="font-style:normal;font-variant:normal;font-weight:bold;font-stretch:normal;font-size:25.4px;line-height:1.15;font-family:Oswald;-inkscape-font-specification:'Oswald Bold';fill:#f1faee;fill-opacity:1;stroke-width:0.264583"
         d="M 307.20625,27.909557 V 7.3355577 h 4.1148 V 27.909557 Z" />
      <path
         id="path2208"
         style="font-style:normal;font-variant:normal;font-weight:bold;font-stretch:normal;font-size:25.4px;line-height:1.15;font-family:Oswald;-inkscape-font-specification:'Oswald Bold';fill:#f1faee;fill-opacity:1;stroke-width:0.264583"
         d="M 313.99916,27.909557 V 13.228358 h 4.1402 v 14.681199 z m -0.0254,-17.170399 V 7.8689576 h 4.1656 v 2.8702004 z" />
      <path
         id="path2210"
         style="font-style:normal;font-variant:normal;font-weight:bold;font-stretch:normal;font-size:25.4px;line-height:1.15;font-family:Oswald;-inkscape-font-specification:'Oswald Bold';fill:#f1faee;fill-opacity:1;stroke-width:0.264583"
         d="m 323.74325,28.163557 q -1.1176,0 -1.8796,-0.5334 -0.762,-0.5334 -1.143,-1.3462 -0.381,-0.8382 -0.381,-1.7018 0,-1.3716 0.5334,-2.3114 0.5588,-0.9398 1.4478,-1.5748 0.889,-0.635 1.9558,-1.0668 1.0668,-0.4572 2.1082,-0.8128 v -1.473199 q 0,-0.381 -0.0762,-0.6604 -0.0762,-0.3048 -0.254,-0.4572 -0.1778,-0.1778 -0.5334,-0.1778 -0.3556,0 -0.5588,0.1524 -0.1778,0.1524 -0.254,0.4318 -0.0762,0.254 -0.1016,0.5842 l -0.1016,1.066799 -3.8608,-0.1524 q 0.127,-2.641599 1.397,-3.886199 1.2954,-1.27 3.8608,-1.27 2.2352,0 3.3274,1.2446 1.1176,1.2192 1.1176,3.175 v 6.857999 q 0,0.9144 0.0254,1.6002 0.0508,0.6858 0.1016,1.1938 0.0762,0.508 0.127,0.8636 h -3.7084 q -0.0762,-0.5842 -0.1778,-1.27 -0.1016,-0.6858 -0.1524,-0.8128 -0.254,0.9144 -0.9652,1.6256 -0.6858,0.7112 -1.8542,0.7112 z m 1.4732,-2.794 q 0.254,0 0.4572,-0.1016 0.2286,-0.1016 0.4064,-0.2794 0.1778,-0.1778 0.3048,-0.3556 v -4.0132 q -0.508,0.3048 -0.9398,0.635 -0.4318,0.3048 -0.7366,0.6858 -0.3048,0.381 -0.4826,0.8382 -0.1524,0.4318 -0.1524,0.9906 0,0.7366 0.3048,1.1684 0.3048,0.4318 0.8382,0.4318 z" />
      <path
         id="path2212"
         style="line-height:1.05;fill:#f1faee;fill-opacity:1;stroke-width:0.264583"
         d="M 9.3987515,53.50715 13.282133,35.219131 h 2.460981 L 19.649073,53.50715 H 17.233248 L 16.39787,48.901279 H 12.672533 L 11.791998,53.50715 Z M 13.0112,47.072477 h 3.048003 L 14.523912,38.83158 Z" />
      <path
         id="path2214"
         style="line-height:1.05;fill:#f1faee;fill-opacity:1;stroke-width:0.264583"
         d="m 24.326911,53.687772 q -1.603023,0 -2.573869,-0.993423 -0.970845,-1.016001 -1.106312,-2.66418 l 2.009424,-0.609601 q 0.180623,1.241779 0.609601,1.873958 0.428978,0.6096 1.264357,0.6096 0.654756,0 0.993423,-0.361245 0.338667,-0.383822 0.338667,-1.016001 0,-0.564445 -0.248356,-1.016001 -0.248356,-0.451556 -0.812801,-0.925689 l -2.235202,-1.919114 q -0.677334,-0.587022 -1.151468,-1.309512 -0.451556,-0.72249 -0.451556,-1.873957 0,-1.038579 0.406401,-1.738491 0.428978,-0.72249 1.174045,-1.083735 0.767645,-0.383822 1.783646,-0.383822 1.557869,0 2.37067,1.016001 0.835378,0.993423 0.948267,2.415825 l -1.625601,0.6096 q -0.09031,-0.677334 -0.270934,-1.174045 -0.180622,-0.51929 -0.496712,-0.790224 -0.316089,-0.293511 -0.835378,-0.293511 -0.587023,0 -0.948268,0.4064 -0.338667,0.383823 -0.338667,0.92569 0,0.338667 0.135467,0.677334 0.158044,0.31609 0.519289,0.632179 l 2.302936,2.122313 q 0.474134,0.428978 0.880534,0.92569 0.428978,0.496711 0.699912,1.12889 0.270934,0.632178 0.270934,1.467557 0,1.106312 -0.451556,1.85138 -0.451556,0.745067 -1.264357,1.12889 -0.812801,0.361244 -1.896536,0.361244 z" />
      <path
         id="path2216"
         style="line-height:1.05;fill:#f1faee;fill-opacity:1;stroke-width:0.264583"
         d="M 34.883444,53.50715 V 40.457181 h 2.235202 v 1.241779 q 0.654756,-0.745067 1.44498,-1.106312 0.790223,-0.361245 1.625601,-0.361245 0.72249,0 1.286935,0.361245 0.587023,0.361245 0.835378,1.286935 0.699912,-0.857957 1.512713,-1.241779 0.835379,-0.406401 1.738491,-0.406401 0.632178,0 1.151468,0.316089 0.519289,0.293512 0.835378,0.970846 0.316089,0.654756 0.316089,1.738491 V 53.50715 H 45.653055 V 43.414873 q 0,-0.948268 -0.316089,-1.264357 -0.293512,-0.338667 -0.812801,-0.338667 -0.496712,0 -1.038579,0.293512 -0.541867,0.270933 -0.993423,0.767645 0,0.09031 0,0.180622 0,0.09031 0,0.203201 V 53.50715 H 40.279538 V 43.414873 q 0,-0.948268 -0.316089,-1.264357 -0.293511,-0.338667 -0.812801,-0.338667 -0.496711,0 -1.038579,0.293512 -0.519289,0.270933 -0.993423,0.767645 V 53.50715 Z" />
      <path
         id="path2218"
         style="line-height:1.05;fill:#f1faee;fill-opacity:1;stroke-width:0.264583"
         d="m 53.84174,53.687772 q -1.53529,0 -2.370669,-0.587022 -0.835379,-0.609601 -1.174046,-1.761069 -0.316089,-1.174045 -0.316089,-2.867381 v -2.980269 q 0,-1.738491 0.338667,-2.889959 0.338667,-1.151468 1.174046,-1.73849 0.857956,-0.587023 2.348091,-0.587023 1.64818,0 2.415825,0.677334 0.790223,0.677334 1.038579,1.964269 0.248356,1.264356 0.248356,3.048003 v 1.061156 h -5.147739 v 2.619025 q 0,0.790223 0.135467,1.286935 0.158044,0.496711 0.474134,0.745067 0.338667,0.225778 0.857956,0.225778 0.541867,0 0.812801,-0.248356 0.293511,-0.270933 0.383822,-0.745067 0.112889,-0.496712 0.112889,-1.151468 v -0.790223 h 2.348092 v 0.496712 q 0,1.964268 -0.835379,3.093158 -0.835379,1.12889 -2.844803,1.12889 z m -1.444979,-7.969963 h 2.777069 v -1.174046 q 0,-0.812801 -0.09031,-1.354668 -0.09031,-0.564445 -0.383822,-0.835379 -0.270934,-0.293511 -0.880535,-0.293511 -0.587022,0 -0.903112,0.270934 -0.293511,0.270933 -0.4064,0.92569 -0.112889,0.632178 -0.112889,1.761068 z" />
      <path
         id="path2220"
         style="line-height:1.05;fill:#f1faee;fill-opacity:1;stroke-width:0.264583"
         d="M 59.980083,53.50715 V 35.219131 h 2.415825 V 53.50715 Z" />
      <path
         id="path2222"
         style="line-height:1.05;fill:#f1faee;fill-opacity:1;stroke-width:0.264583"
         d="M 64.981416,53.50715 V 35.219131 h 2.415825 v 6.592718 q 0.654756,-0.632178 1.467557,-1.083734 0.812801,-0.451556 1.806224,-0.451556 0.767646,0 1.174046,0.4064 0.428978,0.406401 0.587023,1.016001 0.180622,0.609601 0.180622,1.241779 V 53.50715 h -2.415825 v -9.866499 q 0,-0.699912 -0.2032,-1.083734 -0.2032,-0.383823 -0.835378,-0.383823 -0.428979,0 -0.903112,0.248356 -0.451556,0.248356 -0.857957,0.609601 V 53.50715 Z" />
      <path
         id="path2224"
         style="line-height:1.05;fill:#f1faee;fill-opacity:1;stroke-width:0.264583"
         d="m 78.55773,53.687772 q -1.44498,0 -2.280358,-0.587022 -0.835379,-0.587023 -1.196624,-1.670758 -0.338667,-1.083734 -0.338667,-2.551291 V 45.08563 q 0,-1.467557 0.338667,-2.551291 0.361245,-1.083735 1.196624,-1.670757 0.835378,-0.587023 2.280358,-0.587023 1.444979,0 2.25778,0.587023 0.835378,0.587022 1.174045,1.670757 0.361245,1.083734 0.361245,2.551291 v 3.793071 q 0,1.467557 -0.361245,2.551291 -0.338667,1.083735 -1.174045,1.670758 -0.812801,0.587022 -2.25778,0.587022 z m 0,-1.783646 q 0.699912,0 0.970845,-0.4064 0.293512,-0.406401 0.338667,-1.061157 0.06773,-0.677334 0.06773,-1.399823 v -4.086582 q 0,-0.745068 -0.06773,-1.399824 -0.04516,-0.654756 -0.338667,-1.061157 -0.270933,-0.428978 -0.970845,-0.428978 -0.699912,0 -0.993423,0.428978 -0.293512,0.406401 -0.361245,1.061157 -0.04516,0.654756 -0.04516,1.399824 v 4.086582 q 0,0.722489 0.04516,1.399823 0.06773,0.654756 0.361245,1.061157 0.293511,0.4064 0.993423,0.4064 z" />
      <path
         id="path2226"
         style="line-height:1.05;fill:#f1faee;fill-opacity:1;stroke-width:0.264583"
         d="M 84.648798,53.50715 V 40.457181 h 2.415824 v 1.85138 q 0.72249,-1.196624 1.44498,-1.603024 0.722489,-0.4064 1.444979,-0.4064 0.09031,0 0.158045,0 0.09031,0 0.225778,0.02258 v 2.664181 q -0.270934,-0.112889 -0.632179,-0.180622 -0.338667,-0.09031 -0.699912,-0.09031 -0.564445,0 -1.038579,0.270934 -0.451556,0.248356 -0.903112,0.993423 v 9.527832 z" />
      <path
         id="path2228"
         style="line-height:1.05;fill:#f1faee;fill-opacity:1;stroke-width:0.264583"
         d="m 95.425461,53.687772 q -1.53529,0 -2.370669,-0.587022 -0.835378,-0.609601 -1.174045,-1.761069 -0.31609,-1.174045 -0.31609,-2.867381 v -2.980269 q 0,-1.738491 0.338667,-2.889959 0.338667,-1.151468 1.174046,-1.73849 0.857956,-0.587023 2.348091,-0.587023 1.64818,0 2.415825,0.677334 0.790223,0.677334 1.038579,1.964269 0.248356,1.264356 0.248356,3.048003 v 1.061156 h -5.147739 v 2.619025 q 0,0.790223 0.135467,1.286935 0.158045,0.496711 0.474134,0.745067 0.338667,0.225778 0.857956,0.225778 0.541867,0 0.812801,-0.248356 0.293511,-0.270933 0.383823,-0.745067 0.112889,-0.496712 0.112889,-1.151468 v -0.790223 h 2.348091 v 0.496712 q 0,1.964268 -0.835379,3.093158 -0.835378,1.12889 -2.844803,1.12889 z m -1.444979,-7.969963 h 2.77707 v -1.174046 q 0,-0.812801 -0.09031,-1.354668 -0.09031,-0.564445 -0.383822,-0.835379 -0.270934,-0.293511 -0.880534,-0.293511 -0.587023,0 -0.903112,0.270934 -0.293512,0.270933 -0.406401,0.92569 -0.112889,0.632178 -0.112889,1.761068 z" />
      <path
         id="path2230"
         style="line-height:1.05;fill:#f1faee;fill-opacity:1;stroke-width:0.264583"
         d="m 104.36346,53.687772 q -1.60303,0 -2.57387,-0.993423 -0.97085,-1.016001 -1.10632,-2.66418 l 2.00943,-0.609601 q 0.18062,1.241779 0.6096,1.873958 0.42898,0.6096 1.26436,0.6096 0.65475,0 0.99342,-0.361245 0.33867,-0.383822 0.33867,-1.016001 0,-0.564445 -0.24836,-1.016001 -0.24836,-0.451556 -0.8128,-0.925689 l -2.2352,-1.919114 q -0.67734,-0.587022 -1.15147,-1.309512 -0.45156,-0.72249 -0.45156,-1.873957 0,-1.038579 0.4064,-1.738491 0.42898,-0.72249 1.17405,-1.083735 0.76764,-0.383822 1.78365,-0.383822 1.55786,0 2.37066,1.016001 0.83538,0.993423 0.94827,2.415825 l -1.6256,0.6096 q -0.0903,-0.677334 -0.27093,-1.174045 -0.18063,-0.51929 -0.49671,-0.790224 -0.31609,-0.293511 -0.83538,-0.293511 -0.58703,0 -0.94827,0.4064 -0.33867,0.383823 -0.33867,0.92569 0,0.338667 0.13547,0.677334 0.15804,0.31609 0.51929,0.632179 l 2.30293,2.122313 q 0.47414,0.428978 0.88054,0.92569 0.42898,0.496711 0.69991,1.12889 0.27093,0.632178 0.27093,1.467557 0,1.106312 -0.45155,1.85138 -0.45156,0.745067 -1.26436,1.12889 -0.8128,0.361244 -1.89653,0.361244 z" />
      <path
         id="path2232"
         style="line-height:1.05;fill:#f1faee;fill-opacity:1;stroke-width:0.264583"
         d="m 118.50986,53.687772 q -1.44498,0 -2.28036,-0.587022 -0.83538,-0.587023 -1.19663,-1.670758 -0.33866,-1.083734 -0.33866,-2.551291 V 45.08563 q 0,-1.467557 0.33866,-2.551291 0.36125,-1.083735 1.19663,-1.670757 0.83538,-0.587023 2.28036,-0.587023 1.44497,0 2.25778,0.587023 0.83537,0.587022 1.17404,1.670757 0.36125,1.083734 0.36125,2.551291 v 3.793071 q 0,1.467557 -0.36125,2.551291 -0.33867,1.083735 -1.17404,1.670758 -0.81281,0.587022 -2.25778,0.587022 z m 0,-1.783646 q 0.69991,0 0.97084,-0.4064 0.29351,-0.406401 0.33867,-1.061157 0.0677,-0.677334 0.0677,-1.399823 v -4.086582 q 0,-0.745068 -0.0677,-1.399824 -0.0452,-0.654756 -0.33867,-1.061157 -0.27093,-0.428978 -0.97084,-0.428978 -0.69992,0 -0.99343,0.428978 -0.29351,0.406401 -0.36124,1.061157 -0.0452,0.654756 -0.0452,1.399824 v 4.086582 q 0,0.722489 0.0452,1.399823 0.0677,0.654756 0.36124,1.061157 0.29351,0.4064 0.99343,0.4064 z" />
      <path
         id="path2234"
         style="line-height:1.05;fill:#f1faee;fill-opacity:1;stroke-width:0.264583"
         d="M 124.53319,53.50715 V 40.457181 h 2.41582 v 1.286935 q 0.65476,-0.609601 1.44498,-1.038579 0.79023,-0.428978 1.73849,-0.428978 0.79023,0 1.19663,0.4064 0.42898,0.406401 0.58702,1.016001 0.18062,0.609601 0.18062,1.241779 V 53.50715 h -2.41582 v -9.866499 q 0,-0.699912 -0.2032,-1.083734 -0.2032,-0.383823 -0.83538,-0.383823 -0.4064,0 -0.85796,0.248356 -0.42897,0.225778 -0.83538,0.564445 V 53.50715 Z" />
      <path
         id="path2236"
         style="line-height:1.05;fill:#f1faee;fill-opacity:1;stroke-width:0.264583"
         d="m 137.4805,53.687772 q -1.64818,0 -2.46098,-1.196623 -0.8128,-1.219201 -0.8128,-4.10916 v -2.528713 q 0,-1.490135 0.24835,-2.754492 0.24836,-1.286935 0.92569,-2.05458 0.69991,-0.767645 2.032,-0.767645 0.65476,0 1.19663,0.293511 0.54187,0.293512 0.97084,0.72249 v -6.073429 h 2.41583 V 53.50715 h -2.41583 v -0.835379 q -0.42897,0.451556 -0.94826,0.745068 -0.49672,0.270933 -1.15147,0.270933 z m 0.6096,-1.896535 q 0.33867,0 0.72249,-0.112889 0.38382,-0.135467 0.76764,-0.383822 v -8.556987 q -0.31609,-0.225778 -0.69991,-0.383823 -0.38382,-0.180622 -0.83538,-0.180622 -0.83538,0 -1.12889,0.812801 -0.29351,0.790223 -0.29351,1.919113 v 3.680182 q 0,0.903112 0.0903,1.648179 0.11289,0.72249 0.42898,1.151468 0.31609,0.4064 0.94827,0.4064 z" />
      <path
         id="path2238"
         style="line-height:1.05;fill:#f1faee;fill-opacity:1;stroke-width:0.264583"
         d="m 146.76915,53.687772 q -0.76764,0 -1.35467,-0.428978 -0.58702,-0.451556 -0.92569,-1.12889 -0.33866,-0.699912 -0.33866,-1.467557 0,-1.219201 0.4064,-2.05458 0.4064,-0.835378 1.10631,-1.399823 0.72249,-0.587023 1.64818,-1.016001 0.94827,-0.428979 1.98685,-0.835379 v -0.92569 q 0,-0.790223 -0.0903,-1.309512 -0.0903,-0.51929 -0.38382,-0.767646 -0.27093,-0.270933 -0.83538,-0.270933 -0.49671,0 -0.8128,0.225778 -0.29351,0.225778 -0.42898,0.654756 -0.13546,0.406401 -0.13546,0.970846 v 0.654756 l -2.39325,-0.09031 q 0.0452,-2.167469 0.99342,-3.18347 0.94827,-1.038579 2.93512,-1.038579 1.94169,0 2.75449,1.061156 0.8128,1.061157 0.8128,3.070581 v 5.96054 q 0,0.6096 0.0226,1.174045 0.0452,0.564445 0.0903,1.061157 0.0677,0.474134 0.11289,0.903112 h -2.21263 q -0.0677,-0.361245 -0.18062,-0.903112 -0.0903,-0.564445 -0.13547,-1.016001 -0.22577,0.767645 -0.88053,1.444979 -0.63218,0.654756 -1.76107,0.654756 z m 0.94827,-2.077157 q 0.36124,0 0.67733,-0.2032 0.31609,-0.203201 0.56445,-0.451556 0.24835,-0.270934 0.33867,-0.428979 v -3.702759 q -0.56445,0.316089 -1.06116,0.632178 -0.49671,0.31609 -0.88054,0.677334 -0.36124,0.338667 -0.58702,0.790224 -0.2032,0.428978 -0.2032,0.993423 0,0.790223 0.29351,1.241779 0.29351,0.451556 0.85796,0.451556 z" />
      <path
         id="path2240"
         style="line-height:1.05;fill:#f1faee;fill-opacity:1;stroke-width:0.264583"
         d="m 157.05969,53.687772 q -1.60302,0 -2.57387,-0.993423 -0.97084,-1.016001 -1.10631,-2.66418 l 2.00942,-0.609601 q 0.18063,1.241779 0.6096,1.873958 0.42898,0.6096 1.26436,0.6096 0.65476,0 0.99342,-0.361245 0.33867,-0.383822 0.33867,-1.016001 0,-0.564445 -0.24835,-1.016001 -0.24836,-0.451556 -0.81281,-0.925689 l -2.2352,-1.919114 q -0.67733,-0.587022 -1.15147,-1.309512 -0.45155,-0.72249 -0.45155,-1.873957 0,-1.038579 0.4064,-1.738491 0.42898,-0.72249 1.17404,-1.083735 0.76765,-0.383822 1.78365,-0.383822 1.55787,0 2.37067,1.016001 0.83538,0.993423 0.94827,2.415825 l -1.6256,0.6096 q -0.0903,-0.677334 -0.27094,-1.174045 -0.18062,-0.51929 -0.49671,-0.790224 -0.31609,-0.293511 -0.83538,-0.293511 -0.58702,0 -0.94827,0.4064 -0.33866,0.383823 -0.33866,0.92569 0,0.338667 0.13546,0.677334 0.15805,0.31609 0.51929,0.632179 l 2.30294,2.122313 q 0.47413,0.428978 0.88053,0.92569 0.42898,0.496711 0.69992,1.12889 0.27093,0.632178 0.27093,1.467557 0,1.106312 -0.45156,1.85138 -0.45155,0.745067 -1.26435,1.12889 -0.8128,0.361244 -1.89654,0.361244 z" />
      <path
         id="path2242"
         style="line-height:1.05;fill:#f1faee;fill-opacity:1;stroke-width:0.264583"
         d="m 171.22867,53.687772 q -1.53529,0 -2.37067,-0.587022 -0.83538,-0.609601 -1.17405,-1.761069 -0.31609,-1.174045 -0.31609,-2.867381 v -2.980269 q 0,-1.738491 0.33867,-2.889959 0.33867,-1.151468 1.17405,-1.73849 0.85795,-0.587023 2.34809,-0.587023 1.64818,0 2.41582,0.677334 0.79023,0.677334 1.03858,1.964269 0.24836,1.264356 0.24836,3.048003 v 1.061156 h -5.14774 v 2.619025 q 0,0.790223 0.13547,1.286935 0.15804,0.496711 0.47413,0.745067 0.33867,0.225778 0.85796,0.225778 0.54186,0 0.8128,-0.248356 0.29351,-0.270933 0.38382,-0.745067 0.11289,-0.496712 0.11289,-1.151468 v -0.790223 h 2.34809 v 0.496712 q 0,1.964268 -0.83538,3.093158 -0.83538,1.12889 -2.8448,1.12889 z m -1.44498,-7.969963 h 2.77707 v -1.174046 q 0,-0.812801 -0.0903,-1.354668 -0.0903,-0.564445 -0.38382,-0.835379 -0.27094,-0.293511 -0.88054,-0.293511 -0.58702,0 -0.90311,0.270934 -0.29351,0.270933 -0.4064,0.92569 -0.11289,0.632178 -0.11289,1.761068 z" />
      <path
         id="path2244"
         style="line-height:1.05;fill:#f1faee;fill-opacity:1;stroke-width:0.264583"
         d="m 180.16666,53.687772 q -1.60303,0 -2.57387,-0.993423 -0.97085,-1.016001 -1.10632,-2.66418 l 2.00943,-0.609601 q 0.18062,1.241779 0.6096,1.873958 0.42898,0.6096 1.26436,0.6096 0.65475,0 0.99342,-0.361245 0.33867,-0.383822 0.33867,-1.016001 0,-0.564445 -0.24836,-1.016001 -0.24836,-0.451556 -0.8128,-0.925689 l -2.2352,-1.919114 q -0.67734,-0.587022 -1.15147,-1.309512 -0.45156,-0.72249 -0.45156,-1.873957 0,-1.038579 0.4064,-1.738491 0.42898,-0.72249 1.17405,-1.083735 0.76764,-0.383822 1.78365,-0.383822 1.55786,0 2.37066,1.016001 0.83538,0.993423 0.94827,2.415825 l -1.6256,0.6096 q -0.0903,-0.677334 -0.27093,-1.174045 -0.18063,-0.51929 -0.49672,-0.790224 -0.31608,-0.293511 -0.83537,-0.293511 -0.58703,0 -0.94827,0.4064 -0.33867,0.383823 -0.33867,0.92569 0,0.338667 0.13547,0.677334 0.15804,0.31609 0.51929,0.632179 l 2.30293,2.122313 q 0.47414,0.428978 0.88054,0.92569 0.42898,0.496711 0.69991,1.12889 0.27093,0.632178 0.27093,1.467557 0,1.106312 -0.45155,1.85138 -0.45156,0.745067 -1.26436,1.12889 -0.8128,0.361244 -1.89653,0.361244 z" />
      <path
         id="path2246"
         style="line-height:1.05;fill:#f1faee;fill-opacity:1;stroke-width:0.264583"
         d="m 189.04079,53.687772 q -1.016,0 -1.64818,-0.383822 -0.6096,-0.383823 -0.90311,-1.083735 -0.27094,-0.699911 -0.27094,-1.648179 v -8.511831 h -1.37724 v -1.603024 h 1.37724 v -3.815648 h 2.41583 v 3.815648 h 2.09973 v 1.603024 h -2.09973 v 8.353786 q 0,0.767646 0.24835,1.106313 0.24836,0.316089 0.94827,0.316089 0.18062,0 0.4064,-0.02258 0.24836,-0.02258 0.47414,-0.04516 v 1.783647 q -0.45156,0.06773 -0.83538,0.09031 -0.38383,0.04516 -0.83538,0.04516 z" />
      <path
         id="path2248"
         style="line-height:1.05;fill:#f1faee;fill-opacity:1;stroke-width:0.264583"
         d="m 194.87926,53.687772 q -0.76765,0 -1.35467,-0.428978 -0.58702,-0.451556 -0.92569,-1.12889 -0.33867,-0.699912 -0.33867,-1.467557 0,-1.219201 0.4064,-2.05458 0.40641,-0.835378 1.10632,-1.399823 0.72249,-0.587023 1.64818,-1.016001 0.94826,-0.428979 1.98684,-0.835379 v -0.92569 q 0,-0.790223 -0.0903,-1.309512 -0.0903,-0.51929 -0.38382,-0.767646 -0.27093,-0.270933 -0.83538,-0.270933 -0.49671,0 -0.8128,0.225778 -0.29351,0.225778 -0.42898,0.654756 -0.13547,0.406401 -0.13547,0.970846 v 0.654756 l -2.39324,-0.09031 q 0.0452,-2.167469 0.99342,-3.18347 0.94827,-1.038579 2.93512,-1.038579 1.94169,0 2.75449,1.061156 0.8128,1.061157 0.8128,3.070581 v 5.96054 q 0,0.6096 0.0226,1.174045 0.0451,0.564445 0.0903,1.061157 0.0677,0.474134 0.11289,0.903112 h -2.21263 q -0.0677,-0.361245 -0.18062,-0.903112 -0.0903,-0.564445 -0.13547,-1.016001 -0.22578,0.767645 -0.88053,1.444979 -0.63218,0.654756 -1.76107,0.654756 z m 0.94827,-2.077157 q 0.36124,0 0.67733,-0.2032 0.31609,-0.203201 0.56445,-0.451556 0.24835,-0.270934 0.33866,-0.428979 v -3.702759 q -0.56444,0.316089 -1.06115,0.632178 -0.49672,0.31609 -0.88054,0.677334 -0.36124,0.338667 -0.58702,0.790224 -0.2032,0.428978 -0.2032,0.993423 0,0.790223 0.29351,1.241779 0.29351,0.451556 0.85796,0.451556 z m 2.14489,-13.907925 q -0.63218,0 -1.12889,-0.270934 -0.47414,-0.293511 -0.90311,-0.564445 -0.42898,-0.270934 -0.92569,-0.270934 -0.38383,0 -0.58703,0.203201 -0.18062,0.2032 -0.18062,0.722489 h -1.37724 q 0,-0.677334 0.15804,-1.219201 0.18062,-0.564445 0.56444,-0.880534 0.40641,-0.338667 1.08374,-0.338667 0.56444,0 1.016,0.270933 0.47413,0.270934 0.92569,0.541867 0.45156,0.270934 0.92569,0.270934 0.38382,0 0.56444,-0.2032 0.18063,-0.2032 0.18063,-0.745068 h 1.35467 q 0,0.677334 -0.13547,1.241779 -0.13547,0.564446 -0.49671,0.903113 -0.36125,0.338667 -1.03858,0.338667 z" />
      <path
         id="path2250"
         style="line-height:1.05;fill:#f1faee;fill-opacity:1;stroke-width:0.264583"
         d="m 205.73424,53.687772 q -1.44498,0 -2.28035,-0.587022 -0.83538,-0.587023 -1.19663,-1.670758 -0.33866,-1.083734 -0.33866,-2.551291 V 45.08563 q 0,-1.467557 0.33866,-2.551291 0.36125,-1.083735 1.19663,-1.670757 0.83537,-0.587023 2.28035,-0.587023 1.44498,0 2.25778,0.587023 0.83538,0.587022 1.17405,1.670757 0.36124,1.083734 0.36124,2.551291 v 3.793071 q 0,1.467557 -0.36124,2.551291 -0.33867,1.083735 -1.17405,1.670758 -0.8128,0.587022 -2.25778,0.587022 z m 0,-1.783646 q 0.69992,0 0.97085,-0.4064 0.29351,-0.406401 0.33867,-1.061157 0.0677,-0.677334 0.0677,-1.399823 v -4.086582 q 0,-0.745068 -0.0677,-1.399824 -0.0452,-0.654756 -0.33867,-1.061157 -0.27093,-0.428978 -0.97085,-0.428978 -0.69991,0 -0.99342,0.428978 -0.29351,0.406401 -0.36124,1.061157 -0.0452,0.654756 -0.0452,1.399824 v 4.086582 q 0,0.722489 0.0452,1.399823 0.0677,0.654756 0.36124,1.061157 0.29351,0.4064 0.99342,0.4064 z" />
      <path
         id="path2252"
         style="line-height:1.05;fill:#f1faee;fill-opacity:1;stroke-width:0.264583"
         d="m 219.26506,53.687772 q -0.76764,0 -1.35467,-0.428978 -0.58702,-0.451556 -0.92569,-1.12889 -0.33866,-0.699912 -0.33866,-1.467557 0,-1.219201 0.4064,-2.05458 0.4064,-0.835378 1.10631,-1.399823 0.72249,-0.587023 1.64818,-1.016001 0.94827,-0.428979 1.98685,-0.835379 v -0.92569 q 0,-0.790223 -0.0903,-1.309512 -0.0903,-0.51929 -0.38383,-0.767646 -0.27093,-0.270933 -0.83538,-0.270933 -0.49671,0 -0.8128,0.225778 -0.29351,0.225778 -0.42898,0.654756 -0.13546,0.406401 -0.13546,0.970846 v 0.654756 l -2.39325,-0.09031 q 0.0452,-2.167469 0.99342,-3.18347 0.94827,-1.038579 2.93512,-1.038579 1.94169,0 2.75449,1.061156 0.8128,1.061157 0.8128,3.070581 v 5.96054 q 0,0.6096 0.0226,1.174045 0.0452,0.564445 0.0903,1.061157 0.0677,0.474134 0.11289,0.903112 h -2.21263 q -0.0677,-0.361245 -0.18062,-0.903112 -0.0903,-0.564445 -0.13546,-1.016001 -0.22578,0.767645 -0.88054,1.444979 -0.63218,0.654756 -1.76107,0.654756 z m 0.94827,-2.077157 q 0.36125,0 0.67733,-0.2032 0.31609,-0.203201 0.56445,-0.451556 0.24836,-0.270934 0.33867,-0.428979 v -3.702759 q -0.56445,0.316089 -1.06116,0.632178 -0.49671,0.31609 -0.88053,0.677334 -0.36125,0.338667 -0.58703,0.790224 -0.2032,0.428978 -0.2032,0.993423 0,0.790223 0.29351,1.241779 0.29352,0.451556 0.85796,0.451556 z" />
      <path
         id="path2254"
         style="line-height:1.05;fill:#f1faee;fill-opacity:1;stroke-width:0.264583"
         d="m 231.6779,57.796932 v -5.125161 q -0.42898,0.451556 -0.94827,0.745068 -0.49671,0.270933 -1.15147,0.270933 -1.64818,0 -2.46098,-1.196623 -0.8128,-1.219201 -0.8128,-4.10916 v -2.528713 q 0,-1.490135 0.24836,-2.754492 0.24835,-1.286935 0.92569,-2.05458 0.69991,-0.767645 2.032,-0.767645 0.65476,0 1.19662,0.293511 0.54187,0.293512 0.97085,0.72249 v -0.835379 h 2.41582 v 17.339751 z m -1.49014,-6.005695 q 0.33867,0 0.72249,-0.112889 0.4064,-0.135467 0.76765,-0.383822 v -8.556987 q -0.31609,-0.225778 -0.69991,-0.383823 -0.38382,-0.180622 -0.83538,-0.180622 -0.83538,0 -1.12889,0.812801 -0.29351,0.790223 -0.29351,1.919113 v 3.680182 q 0,0.903112 0.0903,1.648179 0.11289,0.72249 0.42898,1.151468 0.31609,0.4064 0.94826,0.4064 z" />
      <path
         id="path2256"
         style="line-height:1.05;fill:#f1faee;fill-opacity:1;stroke-width:0.264583"
         d="m 238.4142,53.687772 q -0.76764,0 -1.19662,-0.4064 -0.42898,-0.4064 -0.6096,-1.016001 -0.15804,-0.609601 -0.15804,-1.241779 V 40.457181 h 2.41582 v 9.843921 q 0,0.699912 0.2032,1.106313 0.2032,0.383822 0.83538,0.383822 0.4064,0 0.83538,-0.225778 0.45155,-0.248356 0.85795,-0.587023 V 40.457181 h 2.41583 V 53.50715 h -2.41583 v -1.286935 q -0.63217,0.609601 -1.44497,1.038579 -0.79023,0.428978 -1.7385,0.428978 z" />
      <path
         id="path2258"
         style="line-height:1.05;fill:#f1faee;fill-opacity:1;stroke-width:0.264583"
         d="M 246.62018,53.50715 V 40.457181 h 2.41583 V 53.50715 Z m 0,-14.99166 v -2.528713 h 2.41583 v 2.528713 z" />
      <path
         id="path2260"
         style="font-size:14.1111px;line-height:1.05;fill:#f1faee;fill-opacity:1;stroke-width:0.264583"
         d="M 9.8587726,70.186536 V 58.756544 h 4.4167744 v 1.143 h -2.82222 v 3.809997 h 2.18722 v 1.128888 h -2.18722 v 5.348107 z" />
      <path
         id="path2262"
         style="font-size:14.1111px;line-height:1.05;fill:#f1faee;fill-opacity:1;stroke-width:0.264583"
         d="m 16.711476,70.299424 q -0.479778,0 -0.846667,-0.26811 -0.366888,-0.282222 -0.578555,-0.705555 -0.211666,-0.437445 -0.211666,-0.917222 0,-0.761999 0.254,-1.28411 0.253999,-0.522111 0.691444,-0.874888 0.451555,-0.366889 1.03011,-0.635 0.592666,-0.268111 1.241777,-0.522111 v -0.578555 q 0,-0.493888 -0.05645,-0.818443 -0.05644,-0.324556 -0.239888,-0.479778 -0.169334,-0.169333 -0.522111,-0.169333 -0.310444,0 -0.508,0.141111 -0.183444,0.141111 -0.268111,0.409222 -0.08467,0.254 -0.08467,0.606777 v 0.409222 l -1.495777,-0.05644 q 0.02822,-1.354666 0.620889,-1.989665 0.592666,-0.649111 1.834443,-0.649111 1.213554,0 1.721554,0.663222 0.507999,0.663221 0.507999,1.919109 v 3.725331 q 0,0.380999 0.01411,0.733777 0.02822,0.352777 0.05644,0.663222 0.04233,0.296333 0.07056,0.564444 H 18.56003 q -0.04233,-0.225778 -0.112889,-0.564444 -0.05645,-0.352778 -0.08467,-0.635 -0.141111,0.479778 -0.550333,0.903111 -0.39511,0.409221 -1.100665,0.409221 z m 0.592666,-1.298221 q 0.225777,0 0.423333,-0.127 0.197555,-0.127 0.352777,-0.282222 0.155222,-0.169333 0.211667,-0.268111 v -2.31422 q -0.352778,0.197555 -0.663222,0.395111 -0.310444,0.197555 -0.550333,0.423333 -0.225777,0.211666 -0.366888,0.493888 -0.127,0.268111 -0.127,0.620889 0,0.493888 0.183444,0.77611 0.183444,0.282222 0.536222,0.282222 z" />
      <path
         id="path2264"
         style="font-size:14.1111px;line-height:1.05;fill:#f1faee;fill-opacity:1;stroke-width:0.264583"
         d="m 23.481716,70.299424 q -1.001888,0 -1.523999,-0.39511 -0.507999,-0.409222 -0.691444,-1.142999 -0.169333,-0.733778 -0.169333,-1.707444 v -1.876776 q 0,-1.03011 0.183444,-1.749776 0.183445,-0.733778 0.691444,-1.114777 0.522111,-0.395111 1.509888,-0.395111 0.888999,0 1.368777,0.296333 0.493888,0.282222 0.677333,0.860777 0.183444,0.564444 0.183444,1.41111 v 0.479778 H 24.342493 V 64.47154 q 0,-0.536222 -0.07056,-0.846666 -0.07056,-0.310444 -0.254,-0.451555 -0.183444,-0.141111 -0.522111,-0.141111 -0.366888,0 -0.564444,0.169333 -0.197555,0.169333 -0.268111,0.578555 -0.05644,0.395111 -0.05644,1.086555 v 2.56822 q 0,1.044222 0.197555,1.396999 0.197556,0.352778 0.705555,0.352778 0.381,0 0.550333,-0.169334 0.183445,-0.183444 0.225778,-0.507999 0.05644,-0.324556 0.05644,-0.733777 v -0.663222 h 1.368777 v 0.564444 q 0,0.818444 -0.197555,1.41111 -0.183445,0.592666 -0.677333,0.90311 -0.479778,0.310444 -1.354666,0.310444 z m 0.09878,3.20322 q -0.225778,0 -0.465667,-0.04233 -0.239888,-0.04233 -0.479777,-0.09878 v -0.761999 q 0.183444,0.05644 0.366889,0.07055 0.183444,0.02822 0.352777,0.02822 0.366889,0 0.606777,-0.126999 0.254,-0.127 0.254,-0.423333 0,-0.254 -0.141111,-0.409222 -0.141111,-0.141111 -0.409222,-0.239889 -0.268111,-0.08467 -0.64911,-0.141111 v -1.171221 h 0.761999 v 0.790221 q 0.705555,0 1.128888,0.324556 0.437444,0.324555 0.437444,0.888999 0,0.451555 -0.239888,0.733777 -0.225778,0.296333 -0.635,0.437444 -0.395111,0.141111 -0.888999,0.141111 z" />
      <path
         id="path2266"
         style="font-size:14.1111px;line-height:1.05;fill:#f1faee;fill-opacity:1;stroke-width:0.264583"
         d="m 28.507473,70.299424 q -0.479778,0 -0.846666,-0.26811 -0.366889,-0.282222 -0.578555,-0.705555 -0.211667,-0.437445 -0.211667,-0.917222 0,-0.761999 0.254,-1.28411 0.254,-0.522111 0.691444,-0.874888 0.451555,-0.366889 1.03011,-0.635 0.592666,-0.268111 1.241777,-0.522111 v -0.578555 q 0,-0.493888 -0.05645,-0.818443 -0.05644,-0.324556 -0.239888,-0.479778 -0.169333,-0.169333 -0.522111,-0.169333 -0.310444,0 -0.508,0.141111 -0.183444,0.141111 -0.26811,0.409222 -0.08467,0.254 -0.08467,0.606777 v 0.409222 l -1.495777,-0.05644 q 0.02822,-1.354666 0.620889,-1.989665 0.592666,-0.649111 1.834443,-0.649111 1.213554,0 1.721554,0.663222 0.508,0.663221 0.508,1.919109 v 3.725331 q 0,0.380999 0.01411,0.733777 0.02822,0.352777 0.05644,0.663222 0.04233,0.296333 0.07056,0.564444 h -1.382888 q -0.04233,-0.225778 -0.112889,-0.564444 -0.05644,-0.352778 -0.08467,-0.635 -0.141111,0.479778 -0.550333,0.903111 -0.39511,0.409221 -1.100665,0.409221 z m 0.592666,-1.298221 q 0.225777,0 0.423333,-0.127 0.197555,-0.127 0.352777,-0.282222 0.155222,-0.169333 0.211667,-0.268111 v -2.31422 q -0.352778,0.197555 -0.663222,0.395111 -0.310444,0.197555 -0.550333,0.423333 -0.225777,0.211666 -0.366888,0.493888 -0.127,0.268111 -0.127,0.620889 0,0.493888 0.183444,0.77611 0.183444,0.282222 0.536222,0.282222 z" />
      <path
         id="path2268"
         style="font-size:14.1111px;line-height:1.05;fill:#f1faee;fill-opacity:1;stroke-width:0.264583"
         d="m 37.443989,70.299424 q -0.479778,0 -0.747889,-0.253999 -0.268111,-0.254 -0.380999,-0.635 -0.09878,-0.381 -0.09878,-0.77611 V 62.03032 h 1.509888 v 6.152439 q 0,0.437445 0.127,0.691444 0.126999,0.239889 0.52211,0.239889 0.254,0 0.522111,-0.141111 0.282222,-0.155222 0.536222,-0.366889 V 62.03032 h 1.509888 v 8.156216 h -1.509888 v -0.804333 q -0.395111,0.381 -0.903111,0.649111 -0.493888,0.26811 -1.086554,0.26811 z" />
      <path
         id="path2270"
         style="font-size:14.1111px;line-height:1.05;fill:#f1faee;fill-opacity:1;stroke-width:0.264583"
         d="M 42.473934,70.186536 V 62.03032 h 1.396998 v 0.77611 q 0.409222,-0.465666 0.903111,-0.691444 0.493888,-0.225777 1.015999,-0.225777 0.451555,0 0.804333,0.225777 0.366888,0.225778 0.52211,0.804333 0.437445,-0.536222 0.945444,-0.77611 0.522111,-0.254 1.086555,-0.254 0.395111,0 0.719666,0.197555 0.324555,0.183444 0.522111,0.606777 0.197555,0.409222 0.197555,1.086555 v 6.40644 h -1.382888 v -6.307662 q 0,-0.592666 -0.197555,-0.790222 -0.183444,-0.211666 -0.508,-0.211666 -0.310444,0 -0.64911,0.183444 -0.338667,0.169333 -0.620889,0.479777 0,0.05644 0,0.112889 0,0.05645 0,0.127 v 6.40644 h -1.382888 v -6.307662 q 0,-0.592666 -0.197555,-0.790222 -0.183444,-0.211666 -0.508,-0.211666 -0.310444,0 -0.64911,0.183444 -0.324555,0.169333 -0.620889,0.479777 v 6.646329 z" />
      <path
         id="path2272"
         style="font-size:14.1111px;line-height:1.05;fill:#f1faee;fill-opacity:1;stroke-width:0.264583"
         d="m 53.532629,70.299424 q -0.479778,0 -0.846666,-0.26811 -0.366889,-0.282222 -0.578555,-0.705555 -0.211667,-0.437445 -0.211667,-0.917222 0,-0.761999 0.254,-1.28411 0.254,-0.522111 0.691444,-0.874888 0.451555,-0.366889 1.03011,-0.635 0.592666,-0.268111 1.241777,-0.522111 v -0.578555 q 0,-0.493888 -0.05645,-0.818443 -0.05644,-0.324556 -0.239888,-0.479778 -0.169333,-0.169333 -0.522111,-0.169333 -0.310444,0 -0.508,0.141111 -0.183444,0.141111 -0.26811,0.409222 -0.08467,0.254 -0.08467,0.606777 v 0.409222 l -1.495777,-0.05644 q 0.02822,-1.354666 0.620889,-1.989665 0.592666,-0.649111 1.834443,-0.649111 1.213554,0 1.721554,0.663222 0.508,0.663221 0.508,1.919109 v 3.725331 q 0,0.380999 0.01411,0.733777 0.02822,0.352777 0.05644,0.663222 0.04233,0.296333 0.07056,0.564444 h -1.382888 q -0.04233,-0.225778 -0.112889,-0.564444 -0.05644,-0.352778 -0.08467,-0.635 -0.141111,0.479778 -0.550333,0.903111 -0.39511,0.409221 -1.100665,0.409221 z m 0.592666,-1.298221 q 0.225777,0 0.423333,-0.127 0.197555,-0.127 0.352777,-0.282222 0.155222,-0.169333 0.211667,-0.268111 v -2.31422 q -0.352778,0.197555 -0.663222,0.395111 -0.310444,0.197555 -0.550333,0.423333 -0.225777,0.211666 -0.366888,0.493888 -0.127,0.268111 -0.127,0.620889 0,0.493888 0.183444,0.77611 0.183444,0.282222 0.536222,0.282222 z" />
      <path
         id="path2274"
         style="font-size:14.1111px;line-height:1.05;fill:#f1faee;fill-opacity:1;stroke-width:0.264583"
         d="m 62.765478,70.299424 q -0.479778,0 -0.846666,-0.26811 -0.366889,-0.282222 -0.578555,-0.705555 -0.211667,-0.437445 -0.211667,-0.917222 0,-0.761999 0.254,-1.28411 0.254,-0.522111 0.691444,-0.874888 0.451555,-0.366889 1.03011,-0.635 0.592666,-0.268111 1.241777,-0.522111 v -0.578555 q 0,-0.493888 -0.05644,-0.818443 -0.05645,-0.324556 -0.239889,-0.479778 -0.169333,-0.169333 -0.522111,-0.169333 -0.310444,0 -0.507999,0.141111 -0.183445,0.141111 -0.268111,0.409222 -0.08467,0.254 -0.08467,0.606777 v 0.409222 l -1.495777,-0.05644 q 0.02822,-1.354666 0.620889,-1.989665 0.592666,-0.649111 1.834443,-0.649111 1.213555,0 1.721554,0.663222 0.508,0.663221 0.508,1.919109 v 3.725331 q 0,0.380999 0.01411,0.733777 0.02822,0.352777 0.05644,0.663222 0.04233,0.296333 0.07056,0.564444 h -1.382888 q -0.04233,-0.225778 -0.112889,-0.564444 -0.05644,-0.352778 -0.08467,-0.635 -0.141111,0.479778 -0.550333,0.903111 -0.395111,0.409221 -1.100666,0.409221 z m 0.592666,-1.298221 q 0.225778,0 0.423333,-0.127 0.197555,-0.127 0.352778,-0.282222 0.155222,-0.169333 0.211666,-0.268111 v -2.31422 q -0.352777,0.197555 -0.663222,0.395111 -0.310444,0.197555 -0.550333,0.423333 -0.225777,0.211666 -0.366888,0.493888 -0.127,0.268111 -0.127,0.620889 0,0.493888 0.183444,0.77611 0.183444,0.282222 0.536222,0.282222 z" />
      <path
         id="path2276"
         style="font-size:14.1111px;line-height:1.05;fill:#f1faee;fill-opacity:1;stroke-width:0.264583"
         d="m 68.477384,70.299424 q -0.479777,0 -0.747888,-0.253999 -0.268111,-0.254 -0.381,-0.635 -0.09878,-0.381 -0.09878,-0.77611 V 62.03032 h 1.509887 v 6.152439 q 0,0.437445 0.127,0.691444 0.127,0.239889 0.522111,0.239889 0.254,0 0.522111,-0.141111 0.282222,-0.155222 0.536222,-0.366889 V 62.03032 h 1.509887 v 8.156216 H 70.46705 v -0.804333 q -0.395111,0.381 -0.903111,0.649111 -0.493888,0.26811 -1.086555,0.26811 z" />
      <path
         id="path2278"
         style="font-size:14.1111px;line-height:1.05;fill:#f1faee;fill-opacity:1;stroke-width:0.264583"
         d="M 73.648442,70.186536 V 58.756544 h 1.509888 v 11.429992 z" />
      <path
         id="path2280"
         style="font-size:14.1111px;line-height:1.05;fill:#f1faee;fill-opacity:1;stroke-width:0.264583"
         d="m 78.199495,70.299424 q -0.479777,0 -0.846666,-0.26811 -0.366889,-0.282222 -0.578555,-0.705555 -0.211667,-0.437445 -0.211667,-0.917222 0,-0.761999 0.254,-1.28411 0.254,-0.522111 0.691444,-0.874888 0.451555,-0.366889 1.03011,-0.635 0.592667,-0.268111 1.241777,-0.522111 v -0.578555 q 0,-0.493888 -0.05644,-0.818443 -0.05644,-0.324556 -0.239889,-0.479778 -0.169333,-0.169333 -0.522111,-0.169333 -0.310444,0 -0.507999,0.141111 -0.183445,0.141111 -0.268111,0.409222 -0.08467,0.254 -0.08467,0.606777 v 0.409222 l -1.495776,-0.05644 q 0.02822,-1.354666 0.620888,-1.989665 0.592666,-0.649111 1.834443,-0.649111 1.213555,0 1.721554,0.663222 0.508,0.663221 0.508,1.919109 v 3.725331 q 0,0.380999 0.01411,0.733777 0.02822,0.352777 0.05644,0.663222 0.04233,0.296333 0.07056,0.564444 h -1.382888 q -0.04233,-0.225778 -0.112889,-0.564444 -0.05644,-0.352778 -0.08467,-0.635 -0.141111,0.479778 -0.550333,0.903111 -0.395111,0.409221 -1.100666,0.409221 z m 0.592666,-1.298221 q 0.225778,0 0.423333,-0.127 0.197556,-0.127 0.352778,-0.282222 0.155222,-0.169333 0.211666,-0.268111 v -2.31422 q -0.352777,0.197555 -0.663222,0.395111 -0.310444,0.197555 -0.550332,0.423333 -0.225778,0.211666 -0.366889,0.493888 -0.127,0.268111 -0.127,0.620889 0,0.493888 0.183444,0.77611 0.183445,0.282222 0.536222,0.282222 z" />
      <path
         id="path2282"
         style="font-size:14.1111px;line-height:1.05;fill:#f1faee;fill-opacity:1;stroke-width:0.264583"
         d="m 88.222566,70.299424 q -0.959555,0 -1.481666,-0.366888 -0.522111,-0.381 -0.733777,-1.100666 -0.197555,-0.733777 -0.197555,-1.79211 v -1.862665 q 0,-1.086555 0.211666,-1.806221 0.211667,-0.719666 0.733777,-1.086554 0.536222,-0.366889 1.467555,-0.366889 1.03011,0 1.509887,0.423333 0.493889,0.423333 0.649111,1.227666 0.155222,0.790221 0.155222,1.904998 v 0.663222 h -3.217331 v 1.636888 q 0,0.493888 0.08467,0.804332 0.09878,0.310444 0.296333,0.465667 0.211666,0.141111 0.536222,0.141111 0.338666,0 0.507999,-0.155223 0.183445,-0.169333 0.239889,-0.465666 0.07056,-0.310444 0.07056,-0.719666 v -0.493888 h 1.467554 v 0.310444 q 0,1.227665 -0.522111,1.93322 -0.52211,0.705555 -1.777998,0.705555 z m -0.903111,-4.981218 h 1.735666 v -0.733777 q 0,-0.508 -0.05644,-0.846666 -0.05644,-0.352778 -0.239888,-0.522111 -0.169334,-0.183444 -0.550333,-0.183444 -0.366889,0 -0.564444,0.169333 -0.183445,0.169333 -0.254,0.578555 -0.07056,0.395111 -0.07056,1.100666 z" />
      <path
         id="path2284"
         style="font-size:14.1111px;line-height:1.05;fill:#f1faee;fill-opacity:1;stroke-width:0.264583"
         d="m 91.282908,70.186536 1.834443,-4.289775 -1.79211,-3.866441 h 1.439332 l 1.199444,2.582331 1.058332,-2.582331 h 1.481666 l -1.862666,4.049885 1.890888,4.106331 h -1.439332 l -1.284111,-2.765776 -1.100665,2.765776 z" />
      <path
         id="path2286"
         style="font-size:14.1111px;line-height:1.05;fill:#f1faee;fill-opacity:1;stroke-width:0.264583"
         d="M 97.402496,72.867645 V 62.03032 h 1.509887 v 0.64911 q 0.268111,-0.310444 0.649111,-0.536221 0.381,-0.225778 0.903106,-0.225778 0.635,0 1.00189,0.338666 0.381,0.324556 0.56445,0.832555 0.18344,0.493889 0.23989,1.015999 0.0564,0.508 0.0564,0.874889 v 1.975554 q 0,0.860777 -0.16933,1.636887 -0.16934,0.762 -0.62089,1.241777 -0.43745,0.465666 -1.24178,0.465666 -0.437443,0 -0.776109,-0.211666 -0.338667,-0.225778 -0.606778,-0.508 v 3.287887 z m 2.596442,-3.753553 q 0.395112,0 0.564442,-0.282222 0.16934,-0.296333 0.21167,-0.790222 0.0423,-0.493888 0.0423,-1.086554 V 64.97954 q 0,-0.508 -0.0564,-0.931333 -0.0564,-0.437444 -0.23989,-0.691444 -0.18345,-0.254 -0.578556,-0.254 -0.296333,0 -0.564444,0.127 -0.268111,0.127 -0.465667,0.296333 v 5.221107 q 0.211667,0.155223 0.479778,0.268111 0.268111,0.09878 0.606777,0.09878 z" />
      <path
         id="path2288"
         style="font-size:14.1111px;line-height:1.05;fill:#f1faee;fill-opacity:1;stroke-width:0.264583"
         d="m 105.94412,70.299424 q -0.95955,0 -1.48166,-0.366888 -0.52211,-0.381 -0.73378,-1.100666 -0.19755,-0.733777 -0.19755,-1.79211 v -1.862665 q 0,-1.086555 0.21166,-1.806221 0.21167,-0.719666 0.73378,-1.086554 0.53622,-0.366889 1.46755,-0.366889 1.03011,0 1.50989,0.423333 0.49389,0.423333 0.64911,1.227666 0.15522,0.790221 0.15522,1.904998 v 0.663222 h -3.21733 v 1.636888 q 0,0.493888 0.0847,0.804332 0.0988,0.310444 0.29633,0.465667 0.21167,0.141111 0.53622,0.141111 0.33867,0 0.508,-0.155223 0.18345,-0.169333 0.23989,-0.465666 0.0706,-0.310444 0.0706,-0.719666 v -0.493888 h 1.46755 v 0.310444 q 0,1.227665 -0.52211,1.93322 -0.52211,0.705555 -1.778,0.705555 z m -0.90311,-4.981218 h 1.73567 v -0.733777 q 0,-0.508 -0.0564,-0.846666 -0.0564,-0.352778 -0.23988,-0.522111 -0.16934,-0.183444 -0.55034,-0.183444 -0.36689,0 -0.56444,0.169333 -0.18345,0.169333 -0.254,0.578555 -0.0706,0.395111 -0.0706,1.100666 z" />
      <path
         id="path2290"
         style="font-size:14.1111px;line-height:1.05;fill:#f1faee;fill-opacity:1;stroke-width:0.264583"
         d="M 109.6818,70.186536 V 62.03032 h 1.50989 v 1.15711 q 0.45155,-0.747888 0.90311,-1.001888 0.45155,-0.254 0.90311,-0.254 0.0564,0 0.0988,0 0.0564,0 0.14112,0.01411 v 1.66511 q -0.16934,-0.07056 -0.39512,-0.112889 -0.21166,-0.05644 -0.43744,-0.05644 -0.35278,0 -0.64911,0.169333 -0.28222,0.155222 -0.56444,0.620888 v 5.954885 z" />
      <path
         id="path2292"
         style="font-size:14.1111px;line-height:1.05;fill:#f1faee;fill-opacity:1;stroke-width:0.264583"
         d="M 114.2582,70.186536 V 62.03032 h 1.50989 v 8.156216 z m 0,-9.369771 v -1.580443 h 1.50989 v 1.580443 z" />
      <path
         id="path2294"
         style="font-size:14.1111px;line-height:1.05;fill:#f1faee;fill-opacity:1;stroke-width:0.264583"
         d="M 117.38403,70.186536 V 62.03032 h 1.397 v 0.77611 q 0.40922,-0.465666 0.90311,-0.691444 0.49389,-0.225777 1.016,-0.225777 0.45156,0 0.80433,0.225777 0.36689,0.225778 0.52211,0.804333 0.43745,-0.536222 0.94545,-0.77611 0.52211,-0.254 1.08655,-0.254 0.39511,0 0.71967,0.197555 0.32455,0.183444 0.52211,0.606777 0.19756,0.409222 0.19756,1.086555 v 6.40644 h -1.38289 v -6.307662 q 0,-0.592666 -0.19756,-0.790222 -0.18344,-0.211666 -0.508,-0.211666 -0.31044,0 -0.64911,0.183444 -0.33866,0.169333 -0.62089,0.479777 0,0.05644 0,0.112889 0,0.05645 0,0.127 v 6.40644 h -1.38288 v -6.307662 q 0,-0.592666 -0.19756,-0.790222 -0.18344,-0.211666 -0.508,-0.211666 -0.31044,0 -0.64911,0.183444 -0.32456,0.169333 -0.62089,0.479777 v 6.646329 z" />
      <path
         id="path2296"
         style="font-size:14.1111px;line-height:1.05;fill:#f1faee;fill-opacity:1;stroke-width:0.264583"
         d="m 129.23295,70.299424 q -0.95956,0 -1.48167,-0.366888 -0.52211,-0.381 -0.73377,-1.100666 -0.19756,-0.733777 -0.19756,-1.79211 v -1.862665 q 0,-1.086555 0.21167,-1.806221 0.21166,-0.719666 0.73377,-1.086554 0.53623,-0.366889 1.46756,-0.366889 1.03011,0 1.50989,0.423333 0.49389,0.423333 0.64911,1.227666 0.15522,0.790221 0.15522,1.904998 v 0.663222 h -3.21733 v 1.636888 q 0,0.493888 0.0847,0.804332 0.0988,0.310444 0.29633,0.465667 0.21167,0.141111 0.53622,0.141111 0.33867,0 0.508,-0.155223 0.18344,-0.169333 0.23989,-0.465666 0.0705,-0.310444 0.0705,-0.719666 v -0.493888 h 1.46756 v 0.310444 q 0,1.227665 -0.52211,1.93322 -0.52211,0.705555 -1.778,0.705555 z m -0.90311,-4.981218 h 1.73566 v -0.733777 q 0,-0.508 -0.0564,-0.846666 -0.0564,-0.352778 -0.23989,-0.522111 -0.16933,-0.183444 -0.55033,-0.183444 -0.36689,0 -0.56445,0.169333 -0.18344,0.169333 -0.254,0.578555 -0.0705,0.395111 -0.0705,1.100666 z" />
      <path
         id="path2298"
         style="font-size:14.1111px;line-height:1.05;fill:#f1faee;fill-opacity:1;stroke-width:0.264583"
         d="M 132.92829,70.186536 V 62.03032 h 1.50989 v 0.804332 q 0.40922,-0.380999 0.90311,-0.64911 0.49389,-0.268111 1.08655,-0.268111 0.49389,0 0.74789,0.254 0.26811,0.254 0.36689,0.634999 0.11289,0.381 0.11289,0.776111 v 6.603995 h -1.50989 v -6.166551 q 0,-0.437444 -0.127,-0.677333 -0.127,-0.239889 -0.52211,-0.239889 -0.254,0 -0.53622,0.155222 -0.26811,0.141111 -0.52211,0.352778 v 6.575773 z" />
      <path
         id="path2300"
         style="font-size:14.1111px;line-height:1.05;fill:#f1faee;fill-opacity:1;stroke-width:0.264583"
         d="m 141.30257,70.299424 q -0.635,0 -1.03011,-0.239888 -0.381,-0.239889 -0.56444,-0.677333 -0.16934,-0.437444 -0.16934,-1.03011 v -5.319885 h -0.86077 V 62.03032 h 0.86077 v -2.384776 h 1.50989 v 2.384776 h 1.31233 v 1.001888 h -1.31233 v 5.221107 q 0,0.479777 0.15522,0.691444 0.15523,0.197555 0.59267,0.197555 0.11289,0 0.254,-0.01411 0.15522,-0.01411 0.29633,-0.02822 v 1.114777 q -0.28222,0.04233 -0.52211,0.05644 -0.23989,0.02822 -0.52211,0.02822 z" />
      <path
         id="path2302"
         style="font-size:14.1111px;line-height:1.05;fill:#f1faee;fill-opacity:1;stroke-width:0.264583"
         d="m 144.95162,70.299424 q -0.47978,0 -0.84667,-0.26811 -0.36689,-0.282222 -0.57856,-0.705555 -0.21166,-0.437445 -0.21166,-0.917222 0,-0.761999 0.254,-1.28411 0.254,-0.522111 0.69144,-0.874888 0.45156,-0.366889 1.03011,-0.635 0.59267,-0.268111 1.24178,-0.522111 v -0.578555 q 0,-0.493888 -0.0565,-0.818443 -0.0564,-0.324556 -0.23988,-0.479778 -0.16934,-0.169333 -0.52211,-0.169333 -0.31045,0 -0.508,0.141111 -0.18345,0.141111 -0.26812,0.409222 -0.0847,0.254 -0.0847,0.606777 v 0.409222 l -1.49578,-0.05644 q 0.0282,-1.354666 0.62089,-1.989665 0.59267,-0.649111 1.83444,-0.649111 1.21356,0 1.72156,0.663222 0.508,0.663221 0.508,1.919109 v 3.725331 q 0,0.380999 0.0141,0.733777 0.0282,0.352777 0.0564,0.663222 0.0423,0.296333 0.0706,0.564444 h -1.38289 q -0.0423,-0.225778 -0.11289,-0.564444 -0.0564,-0.352778 -0.0847,-0.635 -0.14111,0.479778 -0.55033,0.903111 -0.39511,0.409221 -1.10066,0.409221 z m 0.59266,-1.298221 q 0.22578,0 0.42334,-0.127 0.19755,-0.127 0.35277,-0.282222 0.15522,-0.169333 0.21167,-0.268111 v -2.31422 q -0.35278,0.197555 -0.66322,0.395111 -0.31045,0.197555 -0.55034,0.423333 -0.22577,0.211666 -0.36688,0.493888 -0.127,0.268111 -0.127,0.620889 0,0.493888 0.18344,0.77611 0.18344,0.282222 0.53622,0.282222 z" />
      <path
         id="path2304"
         style="font-size:14.1111px;line-height:1.05;fill:#f1faee;fill-opacity:1;stroke-width:0.264583"
         d="M 149.63341,70.186536 V 58.756544 h 1.50989 v 11.429992 z" />
      <path
         id="path2306"
         style="font-size:14.1111px;line-height:1.05;fill:#f1faee;fill-opacity:1;stroke-width:0.264583"
         d="m 157.83239,70.299424 q -1.00189,0 -1.60866,-0.620888 -0.60678,-0.634999 -0.69145,-1.66511 l 1.25589,-0.380999 q 0.11289,0.77611 0.381,1.171221 0.26811,0.381 0.79022,0.381 0.40922,0 0.62089,-0.225778 0.21167,-0.239889 0.21167,-0.635 0,-0.352777 -0.15523,-0.634999 -0.15522,-0.282222 -0.50799,-0.578555 l -1.397,-1.199444 q -0.42334,-0.366888 -0.71967,-0.818444 -0.28222,-0.451555 -0.28222,-1.171221 0,-0.64911 0.254,-1.086555 0.26811,-0.451555 0.73378,-0.677332 0.47977,-0.239889 1.11477,-0.239889 0.97367,0 1.48167,0.634999 0.52211,0.620889 0.59266,1.509888 l -1.016,0.381 q -0.0564,-0.423333 -0.16933,-0.733777 -0.11289,-0.324556 -0.31044,-0.493889 -0.19756,-0.183444 -0.52211,-0.183444 -0.36689,0 -0.59267,0.254 -0.21167,0.239888 -0.21167,0.578555 0,0.211666 0.0847,0.423333 0.0988,0.197555 0.32456,0.395111 l 1.43933,1.326443 q 0.29633,0.268111 0.55033,0.578555 0.26811,0.310444 0.43745,0.705555 0.16933,0.395111 0.16933,0.917222 0,0.691444 -0.28222,1.15711 -0.28223,0.465666 -0.79023,0.705555 -0.508,0.225777 -1.18533,0.225777 z" />
      <path
         id="path2308"
         style="font-size:14.1111px;line-height:1.05;fill:#f1faee;fill-opacity:1;stroke-width:0.264583"
         d="m 163.4634,70.299424 q -0.95956,0 -1.48167,-0.366888 -0.52211,-0.381 -0.73378,-1.100666 -0.19755,-0.733777 -0.19755,-1.79211 v -1.862665 q 0,-1.086555 0.21166,-1.806221 0.21167,-0.719666 0.73378,-1.086554 0.53622,-0.366889 1.46756,-0.366889 1.03011,0 1.50988,0.423333 0.49389,0.423333 0.64911,1.227666 0.15523,0.790221 0.15523,1.904998 v 0.663222 h -3.21734 v 1.636888 q 0,0.493888 0.0847,0.804332 0.0988,0.310444 0.29633,0.465667 0.21167,0.141111 0.53623,0.141111 0.33866,0 0.508,-0.155223 0.18344,-0.169333 0.23988,-0.465666 0.0706,-0.310444 0.0706,-0.719666 v -0.493888 h 1.46755 v 0.310444 q 0,1.227665 -0.52211,1.93322 -0.52211,0.705555 -1.77799,0.705555 z m -0.90312,-4.981218 h 1.73567 v -0.733777 q 0,-0.508 -0.0564,-0.846666 -0.0564,-0.352778 -0.23989,-0.522111 -0.16934,-0.183444 -0.55034,-0.183444 -0.36688,0 -0.56444,0.169333 -0.18344,0.169333 -0.254,0.578555 -0.0706,0.395111 -0.0706,1.100666 z" />
      <path
         id="path2310"
         style="font-size:14.1111px;line-height:1.05;fill:#f1faee;fill-opacity:1;stroke-width:0.264583"
         d="M 167.15873,70.186536 V 62.03032 h 1.397 v 0.77611 q 0.40922,-0.465666 0.90311,-0.691444 0.49389,-0.225777 1.016,-0.225777 0.45155,0 0.80433,0.225777 0.36689,0.225778 0.52211,0.804333 0.43744,-0.536222 0.94544,-0.77611 0.52212,-0.254 1.08656,-0.254 0.39511,0 0.71967,0.197555 0.32455,0.183444 0.52211,0.606777 0.19755,0.409222 0.19755,1.086555 v 6.40644 h -1.38289 v -6.307662 q 0,-0.592666 -0.19755,-0.790222 -0.18345,-0.211666 -0.508,-0.211666 -0.31045,0 -0.64911,0.183444 -0.33867,0.169333 -0.62089,0.479777 0,0.05644 0,0.112889 0,0.05645 0,0.127 v 6.40644 h -1.38289 v -6.307662 q 0,-0.592666 -0.19755,-0.790222 -0.18345,-0.211666 -0.508,-0.211666 -0.31045,0 -0.64911,0.183444 -0.32456,0.169333 -0.62089,0.479777 v 6.646329 z" />
      <path
         id="path2312"
         style="font-size:14.1111px;line-height:1.05;fill:#f1faee;fill-opacity:1;stroke-width:0.264583"
         d="m 182.20403,70.299424 q -1.00189,0 -1.524,-0.39511 -0.508,-0.409222 -0.69144,-1.142999 -0.16933,-0.733778 -0.16933,-1.707444 v -1.876776 q 0,-1.03011 0.18344,-1.749776 0.18345,-0.733778 0.69145,-1.114777 0.52211,-0.395111 1.50988,-0.395111 0.889,0 1.36878,0.296333 0.49389,0.282222 0.67733,0.860777 0.18345,0.564444 0.18345,1.41111 v 0.479778 h -1.36878 V 64.47154 q 0,-0.536222 -0.0706,-0.846666 -0.0705,-0.310444 -0.254,-0.451555 -0.18344,-0.141111 -0.52211,-0.141111 -0.36688,0 -0.56444,0.169333 -0.19756,0.169333 -0.26811,0.578555 -0.0565,0.395111 -0.0565,1.086555 v 2.56822 q 0,1.044222 0.19756,1.396999 0.19756,0.352778 0.70556,0.352778 0.38099,0 0.55033,-0.169334 0.18344,-0.183444 0.22578,-0.507999 0.0564,-0.324556 0.0564,-0.733777 v -0.663222 h 1.36878 v 0.564444 q 0,0.818444 -0.19756,1.41111 -0.18344,0.592666 -0.67733,0.90311 -0.47978,0.310444 -1.35467,0.310444 z" />
      <path
         id="path2314"
         style="font-size:14.1111px;line-height:1.05;fill:#f1faee;fill-opacity:1;stroke-width:0.264583"
         d="m 188.00589,70.299424 q -0.90311,0 -1.42522,-0.366888 -0.52211,-0.366889 -0.74789,-1.044222 -0.21166,-0.677332 -0.21166,-1.594554 v -2.370665 q 0,-0.917221 0.21166,-1.594554 0.22578,-0.677333 0.74789,-1.044221 0.52211,-0.366889 1.42522,-0.366889 0.90311,0 1.41111,0.366889 0.52211,0.366888 0.73378,1.044221 0.22578,0.677333 0.22578,1.594554 v 2.370665 q 0,0.917222 -0.22578,1.594554 -0.21167,0.677333 -0.73378,1.044222 -0.508,0.366888 -1.41111,0.366888 z m 0,-1.114776 q 0.43745,0 0.60678,-0.254 0.18345,-0.254 0.21167,-0.663222 0.0423,-0.423333 0.0423,-0.874888 v -2.554109 q 0,-0.465667 -0.0423,-0.874889 -0.0282,-0.409221 -0.21167,-0.663221 -0.16933,-0.268111 -0.60678,-0.268111 -0.43744,0 -0.62088,0.268111 -0.18345,0.254 -0.22578,0.663221 -0.0282,0.409222 -0.0282,0.874889 v 2.554109 q 0,0.451555 0.0282,0.874888 0.0423,0.409222 0.22578,0.663222 0.18344,0.254 0.62088,0.254 z" />
      <path
         id="path2316"
         style="font-size:14.1111px;line-height:1.05;fill:#f1faee;fill-opacity:1;stroke-width:0.264583"
         d="M 191.77048,70.186536 V 62.03032 h 1.397 v 0.77611 q 0.40923,-0.465666 0.90311,-0.691444 0.49389,-0.225777 1.016,-0.225777 0.45156,0 0.80434,0.225777 0.36688,0.225778 0.52211,0.804333 0.43744,-0.536222 0.94544,-0.77611 0.52211,-0.254 1.08655,-0.254 0.39512,0 0.71967,0.197555 0.32456,0.183444 0.52211,0.606777 0.19756,0.409222 0.19756,1.086555 v 6.40644 h -1.38289 v -6.307662 q 0,-0.592666 -0.19756,-0.790222 -0.18344,-0.211666 -0.508,-0.211666 -0.31044,0 -0.64911,0.183444 -0.33866,0.169333 -0.62088,0.479777 0,0.05644 0,0.112889 0,0.05645 0,0.127 v 6.40644 h -1.38289 v -6.307662 q 0,-0.592666 -0.19756,-0.790222 -0.18344,-0.211666 -0.508,-0.211666 -0.31044,0 -0.64911,0.183444 -0.32455,0.169333 -0.62089,0.479777 v 6.646329 z" />
      <path
         id="path2318"
         style="font-size:14.1111px;line-height:1.05;fill:#f1faee;fill-opacity:1;stroke-width:0.264583"
         d="M 201.40394,70.186536 V 62.03032 h 1.50989 v 1.15711 q 0.45156,-0.747888 0.90311,-1.001888 0.45156,-0.254 0.90311,-0.254 0.0565,0 0.0988,0 0.0564,0 0.14111,0.01411 v 1.66511 q -0.16933,-0.07056 -0.39511,-0.112889 -0.21167,-0.05644 -0.43744,-0.05644 -0.35278,0 -0.64912,0.169333 -0.28222,0.155222 -0.56444,0.620888 v 5.954885 z" />
      <path
         id="path2320"
         style="font-size:14.1111px;line-height:1.05;fill:#f1faee;fill-opacity:1;stroke-width:0.264583"
         d="M 205.88158,72.867645 V 62.03032 h 1.50989 v 0.64911 q 0.26811,-0.310444 0.64911,-0.536221 0.381,-0.225778 0.90311,-0.225778 0.635,0 1.00189,0.338666 0.381,0.324556 0.56444,0.832555 0.18345,0.493889 0.23989,1.015999 0.0565,0.508 0.0565,0.874889 v 1.975554 q 0,0.860777 -0.16934,1.636887 -0.16933,0.762 -0.62088,1.241777 -0.43745,0.465666 -1.24178,0.465666 -0.43745,0 -0.77611,-0.211666 -0.33867,-0.225778 -0.60678,-0.508 v 3.287887 z m 2.59645,-3.753553 q 0.39511,0 0.56444,-0.282222 0.16933,-0.296333 0.21167,-0.790222 0.0423,-0.493888 0.0423,-1.086554 V 64.97954 q 0,-0.508 -0.0564,-0.931333 -0.0564,-0.437444 -0.23989,-0.691444 -0.18345,-0.254 -0.57856,-0.254 -0.29633,0 -0.56444,0.127 -0.26811,0.127 -0.46567,0.296333 v 5.221107 q 0.21167,0.155223 0.47978,0.268111 0.26811,0.09878 0.60678,0.09878 z" />
      <path
         id="path2322"
         style="font-size:14.1111px;line-height:1.05;fill:#f1faee;fill-opacity:1;stroke-width:0.264583"
         d="m 214.40909,70.299424 q -0.90311,0 -1.42522,-0.366888 -0.52211,-0.366889 -0.74789,-1.044222 -0.21166,-0.677332 -0.21166,-1.594554 v -2.370665 q 0,-0.917221 0.21166,-1.594554 0.22578,-0.677333 0.74789,-1.044221 0.52211,-0.366889 1.42522,-0.366889 0.90311,0 1.41111,0.366889 0.52211,0.366888 0.73378,1.044221 0.22578,0.677333 0.22578,1.594554 v 2.370665 q 0,0.917222 -0.22578,1.594554 -0.21167,0.677333 -0.73378,1.044222 -0.508,0.366888 -1.41111,0.366888 z m 0,-1.114776 q 0.43745,0 0.60678,-0.254 0.18344,-0.254 0.21167,-0.663222 0.0423,-0.423333 0.0423,-0.874888 v -2.554109 q 0,-0.465667 -0.0423,-0.874889 -0.0282,-0.409221 -0.21167,-0.663221 -0.16933,-0.268111 -0.60678,-0.268111 -0.43744,0 -0.62089,0.268111 -0.18344,0.254 -0.22577,0.663221 -0.0282,0.409222 -0.0282,0.874889 v 2.554109 q 0,0.451555 0.0282,0.874888 0.0423,0.409222 0.22577,0.663222 0.18345,0.254 0.62089,0.254 z" />
      <path
         id="path2324"
         style="font-size:14.1111px;line-height:1.05;fill:#f1faee;fill-opacity:1;stroke-width:0.264583"
         d="M 218.17367,70.186536 V 62.03032 h 1.397 v 0.77611 q 0.40922,-0.465666 0.90311,-0.691444 0.49389,-0.225777 1.016,-0.225777 0.45155,0 0.80433,0.225777 0.36689,0.225778 0.52211,0.804333 0.43744,-0.536222 0.94544,-0.77611 0.52211,-0.254 1.08656,-0.254 0.39511,0 0.71966,0.197555 0.32456,0.183444 0.52211,0.606777 0.19756,0.409222 0.19756,1.086555 v 6.40644 h -1.38289 v -6.307662 q 0,-0.592666 -0.19755,-0.790222 -0.18345,-0.211666 -0.508,-0.211666 -0.31045,0 -0.64911,0.183444 -0.33867,0.169333 -0.62089,0.479777 0,0.05644 0,0.112889 0,0.05645 0,0.127 v 6.40644 h -1.38289 v -6.307662 q 0,-0.592666 -0.19756,-0.790222 -0.18344,-0.211666 -0.50799,-0.211666 -0.31045,0 -0.64912,0.183444 -0.32455,0.169333 -0.62088,0.479777 v 6.646329 z" />
      <path
         id="path2326"
         style="font-size:14.1111px;line-height:1.05;fill:#f1faee;fill-opacity:1;stroke-width:0.264583"
         d="M 227.86359,70.186536 V 62.03032 h 1.50988 v 8.156216 z m 0,-9.369771 v -1.580443 h 1.50988 v 1.580443 z" />
      <path
         id="path2328"
         style="font-size:14.1111px;line-height:1.05;fill:#f1faee;fill-opacity:1;stroke-width:0.264583"
         d="m 232.8803,70.299424 q -1.00188,0 -1.60866,-0.620888 -0.60678,-0.634999 -0.69144,-1.66511 l 1.25588,-0.380999 q 0.11289,0.77611 0.381,1.171221 0.26811,0.381 0.79022,0.381 0.40923,0 0.62089,-0.225778 0.21167,-0.239889 0.21167,-0.635 0,-0.352777 -0.15522,-0.634999 -0.15522,-0.282222 -0.508,-0.578555 l -1.397,-1.199444 q -0.42333,-0.366888 -0.71967,-0.818444 -0.28222,-0.451555 -0.28222,-1.171221 0,-0.64911 0.254,-1.086555 0.26811,-0.451555 0.73378,-0.677332 0.47978,-0.239889 1.11477,-0.239889 0.97367,0 1.48167,0.634999 0.52211,0.620889 0.59267,1.509888 l -1.016,0.381 q -0.0564,-0.423333 -0.16934,-0.733777 -0.11288,-0.324556 -0.31044,-0.493889 -0.19756,-0.183444 -0.52211,-0.183444 -0.36689,0 -0.59267,0.254 -0.21166,0.239888 -0.21166,0.578555 0,0.211666 0.0847,0.423333 0.0988,0.197555 0.32456,0.395111 l 1.43933,1.326443 q 0.29633,0.268111 0.55033,0.578555 0.26811,0.310444 0.43745,0.705555 0.16933,0.395111 0.16933,0.917222 0,0.691444 -0.28222,1.15711 -0.28222,0.465666 -0.79022,0.705555 -0.508,0.225777 -1.18534,0.225777 z" />
      <path
         id="path2330"
         style="font-size:14.1111px;line-height:1.05;fill:#f1faee;fill-opacity:1;stroke-width:0.264583"
         d="m 238.1444,70.299424 q -1.00188,0 -1.60866,-0.620888 -0.60678,-0.634999 -0.69145,-1.66511 l 1.25589,-0.380999 q 0.11289,0.77611 0.381,1.171221 0.26811,0.381 0.79022,0.381 0.40923,0 0.62089,-0.225778 0.21167,-0.239889 0.21167,-0.635 0,-0.352777 -0.15522,-0.634999 -0.15523,-0.282222 -0.508,-0.578555 l -1.397,-1.199444 q -0.42333,-0.366888 -0.71967,-0.818444 -0.28222,-0.451555 -0.28222,-1.171221 0,-0.64911 0.254,-1.086555 0.26811,-0.451555 0.73378,-0.677332 0.47977,-0.239889 1.11477,-0.239889 0.97367,0 1.48167,0.634999 0.52211,0.620889 0.59267,1.509888 l -1.016,0.381 q -0.0565,-0.423333 -0.16934,-0.733777 -0.11289,-0.324556 -0.31044,-0.493889 -0.19756,-0.183444 -0.52211,-0.183444 -0.36689,0 -0.59267,0.254 -0.21166,0.239888 -0.21166,0.578555 0,0.211666 0.0847,0.423333 0.0988,0.197555 0.32456,0.395111 l 1.43933,1.326443 q 0.29633,0.268111 0.55033,0.578555 0.26811,0.310444 0.43745,0.705555 0.16933,0.395111 0.16933,0.917222 0,0.691444 -0.28222,1.15711 -0.28222,0.465666 -0.79022,0.705555 -0.508,0.225777 -1.18534,0.225777 z" />
      <path
         id="path2332"
         style="font-size:14.1111px;line-height:1.05;fill:#f1faee;fill-opacity:1;stroke-width:0.264583"
         d="m 243.76128,70.299424 q -0.90311,0 -1.42522,-0.366888 -0.52211,-0.366889 -0.74789,-1.044222 -0.21167,-0.677332 -0.21167,-1.594554 v -2.370665 q 0,-0.917221 0.21167,-1.594554 0.22578,-0.677333 0.74789,-1.044221 0.52211,-0.366889 1.42522,-0.366889 0.90311,0 1.41111,0.366889 0.52211,0.366888 0.73378,1.044221 0.22578,0.677333 0.22578,1.594554 v 2.370665 q 0,0.917222 -0.22578,1.594554 -0.21167,0.677333 -0.73378,1.044222 -0.508,0.366888 -1.41111,0.366888 z m 0,-1.114776 q 0.43744,0 0.60678,-0.254 0.18344,-0.254 0.21166,-0.663222 0.0423,-0.423333 0.0423,-0.874888 v -2.554109 q 0,-0.465667 -0.0423,-0.874889 -0.0282,-0.409221 -0.21166,-0.663221 -0.16934,-0.268111 -0.60678,-0.268111 -0.43744,0 -0.62089,0.268111 -0.18344,0.254 -0.22578,0.663221 -0.0282,0.409222 -0.0282,0.874889 v 2.554109 q 0,0.451555 0.0282,0.874888 0.0423,0.409222 0.22578,0.663222 0.18345,0.254 0.62089,0.254 z" />
    </g>
  </g>
</svg>
